<?xml version="1.0" standalone="no"?>
<!DOCTYPE svg PUBLIC "-//W3C//DTD SVG 20010904//EN"
 "http://www.w3.org/TR/2001/REC-SVG-20010904/DTD/svg10.dtd">
<svg version="1.0" xmlns="http://www.w3.org/2000/svg"
 width="980.000000pt" height="550.000000pt" viewBox="0 0 980.000000 550.000000"
 preserveAspectRatio="xMidYMid meet">
<metadata>
Created by potrace 1.16, written by Peter Selinger 2001-2019
</metadata>
<g transform="translate(0.000000,550.000000) scale(0.100000,-0.100000)"
fill="#000000" stroke="none">
<path d="M5843 3993 c-29 -2 -53 -8 -53 -12 0 -11 89 -45 97 -37 4 3 13 0 22
-7 9 -8 57 -20 106 -27 50 -6 113 -18 140 -25 28 -7 70 -16 95 -20 75 -10 234
-46 252 -56 23 -12 31 -12 23 1 -3 6 1 10 10 10 9 0 13 -4 10 -10 -3 -5 0 -10
7 -10 60 -3 130 -13 164 -26 41 -14 105 -28 191 -40 24 -4 40 -10 37 -15 -3
-5 14 -10 38 -11 69 -2 81 -4 110 -12 16 -5 26 -11 23 -15 -2 -4 9 -6 24 -3
16 2 64 -5 107 -16 129 -33 262 -45 428 -39 136 5 236 20 223 33 -3 3 5 16 17
29 21 22 28 23 220 29 175 5 205 8 243 27 41 20 56 20 111 4 13 -4 22 -3 22 3
0 17 -39 21 -205 22 -88 0 -252 4 -364 10 -113 5 -206 8 -208 6 -2 -2 13 -16
34 -31 21 -16 46 -38 56 -51 17 -22 17 -24 -4 -35 -16 -8 -20 -8 -14 1 5 8 1
11 -11 9 -11 -2 -25 0 -31 4 -8 5 -23 1 -35 -7 -14 -10 -44 -16 -75 -16 -46 0
-57 4 -83 31 -32 34 -38 49 -18 49 6 0 8 3 5 7 -4 3 0 15 10 25 16 17 15 18
-18 17 -19 -1 -169 3 -334 10 -289 11 -307 13 -485 51 -102 21 -239 53 -305
69 -66 16 -154 37 -195 45 -74 14 -290 38 -320 34 -8 -1 -39 -3 -67 -5z"/>
<path d="M6276 3801 c-3 -4 20 -22 52 -39 54 -28 65 -30 202 -35 101 -4 168
-12 220 -27 93 -25 195 -37 204 -22 3 6 -19 14 -58 21 -36 6 -170 32 -298 57
-258 51 -314 58 -322 45z"/>
<path d="M9471 3759 c-11 -12 -23 -19 -28 -16 -4 3 -201 8 -438 12 l-430 7
-13 -22 c-12 -19 -11 -24 5 -36 23 -17 30 -17 37 1 4 13 35 15 189 15 101 0
293 3 426 7 234 6 242 7 269 30 15 12 22 23 15 23 -7 0 -21 -9 -32 -21z"/>
<path d="M5773 2824 c-15 -6 -18 -80 -4 -89 5 -3 13 -31 17 -63 3 -31 10 -64
14 -72 4 -8 10 -31 13 -50 6 -34 75 -368 96 -460 7 -32 7 -46 -1 -51 -22 -14
-37 4 -43 49 -4 26 -14 74 -22 107 -8 33 -17 76 -19 95 -3 19 -6 44 -9 55 -2
11 -4 24 -4 29 -1 13 -106 0 -143 -18 -17 -9 -36 -16 -42 -16 -7 0 -10 -22 -9
-62 1 -35 2 -63 3 -63 5 0 6 -47 1 -50 -4 -2 -6 -30 -4 -62 1 -32 2 -66 2 -77
1 -13 6 -16 17 -12 13 5 14 3 6 -6 -5 -7 -12 -26 -14 -43 -2 -22 -8 -30 -23
-30 -16 0 -20 7 -21 38 -1 22 -7 43 -15 48 -12 7 -11 9 1 9 13 0 14 11 10 68
-4 37 -6 106 -6 153 l1 86 -55 16 c-68 21 -137 30 -144 19 -2 -4 -6 -40 -7
-81 -2 -40 -7 -75 -11 -77 -5 -3 -8 -22 -8 -43 0 -21 -3 -59 -6 -85 -5 -36
-11 -46 -25 -46 -22 0 -23 15 -9 110 6 36 17 117 26 180 22 162 31 224 43 310
6 41 12 91 13 110 3 34 2 35 -32 34 -19 0 -53 -3 -75 -7 -22 -3 -56 -9 -75
-11 -91 -13 -393 -67 -455 -81 -38 -9 -79 -18 -90 -19 -11 -1 -31 -7 -45 -13
-14 -6 -43 -13 -65 -17 -43 -8 -335 -89 -400 -111 -132 -46 -297 -106 -340
-125 -27 -12 -59 -25 -70 -30 -163 -70 -214 -94 -215 -103 0 -15 123 -209 136
-214 7 -2 22 1 34 7 12 6 24 10 26 7 7 -7 45 -238 42 -254 -2 -9 -21 27 -42
78 -21 52 -42 98 -46 102 -4 5 -17 3 -28 -4 -12 -7 -23 -11 -26 -9 -2 3 -27
61 -56 130 -28 69 -57 130 -63 137 -9 8 -25 4 -67 -16 -276 -138 -593 -341
-805 -517 -201 -166 -405 -373 -524 -534 -31 -41 -58 -77 -61 -80 -3 -3 -39
-57 -80 -120 -159 -247 -281 -544 -335 -814 -14 -70 -25 -136 -25 -147 0 -19
55 -19 3469 -19 3469 0 3470 0 3476 20 4 11 10 18 15 15 5 -3 7 -12 3 -20 -4
-12 4 -15 41 -15 39 0 45 3 40 18 -5 16 -5 16 6 0 10 -17 49 -18 575 -18 l565
0 0 833 0 834 -62 50 c-110 89 -197 152 -327 237 -155 103 -200 128 -212 121
-14 -9 0 -25 16 -18 18 6 19 -4 3 -48 -12 -33 -12 -34 -18 -9 -4 14 -12 24
-19 22 -9 -2 -11 10 -9 40 l3 43 -230 116 c-318 159 -649 287 -970 375 -257
70 -232 59 -239 103 -7 44 -16 54 -40 45 -19 -7 -21 -30 -3 -37 10 -4 10 -6 0
-6 -18 -1 -16 -21 2 -21 12 0 12 -3 -2 -20 -10 -11 -25 -20 -35 -20 -16 0 -17
-6 -12 -47 3 -25 5 -49 6 -52 0 -3 -1 -8 -2 -11 -9 -24 -6 -46 8 -56 17 -13
59 -9 76 7 6 5 17 9 26 9 22 0 42 -83 144 -581 14 -69 35 -165 46 -213 24
-103 25 -136 6 -136 -8 0 -17 4 -20 8 -9 14 -56 261 -56 292 0 47 -30 53 -126
26 l-79 -22 2 -49 c2 -92 3 -115 1 -192 0 -45 4 -79 10 -81 7 -2 7 -13 -1 -35
-5 -18 -12 -38 -14 -45 -7 -28 -28 -4 -30 34 -6 88 -12 243 -12 301 l0 62 -71
21 c-78 23 -99 19 -61 -11 13 -10 19 -19 13 -19 -6 0 -19 11 -30 25 -34 43
-52 33 -52 -27 0 -29 -5 -71 -10 -93 -5 -22 -12 -71 -15 -110 -4 -38 -11 -74
-15 -79 -16 -16 -39 2 -35 26 3 13 10 59 16 103 6 44 13 94 15 110 2 17 8 62
14 100 17 125 29 210 34 232 3 12 7 50 10 85 4 35 11 90 16 123 5 33 17 116
25 185 9 69 18 137 21 151 4 22 1 28 -18 32 -53 13 -573 87 -688 98 -125 12
-1004 23 -1027 13z m83 -99 c3 -14 10 -25 14 -25 4 0 11 -8 14 -17 3 -10 12
-27 19 -38 7 -11 39 -65 71 -120 32 -55 76 -128 97 -162 22 -34 39 -67 39 -73
0 -6 -18 1 -40 15 -27 17 -40 21 -40 12 0 -7 4 -17 9 -23 4 -5 42 -74 84 -154
41 -80 88 -169 103 -197 28 -51 46 -64 59 -43 3 6 12 10 20 10 14 0 11 -20
-14 -82 l-10 -28 -63 38 c-63 37 -63 37 -30 40 17 2 32 6 32 10 0 4 -43 82
-96 172 -189 323 -205 352 -200 358 4 3 21 -2 40 -11 35 -16 53 -13 37 7 -5 6
-41 76 -80 156 -40 80 -76 153 -82 163 -6 11 -6 17 1 17 5 0 12 -11 16 -25z
m1538 -112 c-108 -144 -300 -391 -315 -408 -19 -19 -19 -19 -19 18 0 42 -8 46
-31 14 -193 -266 -279 -387 -279 -391 0 -2 15 -6 33 -8 31 -3 29 -4 -37 -36
-38 -18 -70 -31 -71 -30 -1 2 -5 27 -7 56 -5 56 2 71 22 47 20 -24 33 -18 65
33 16 26 32 49 35 52 3 3 67 98 144 213 76 114 142 207 147 207 5 0 9 -8 9
-17 0 -10 5 -25 10 -33 11 -17 11 -17 155 145 114 128 158 175 163 175 2 0 -8
-17 -24 -37z m-1424 -902 c-69 -13 117 -21 491 -21 362 0 367 0 362 -20 -4
-15 -14 -20 -42 -21 -37 -1 -35 -3 12 -13 39 -9 23 -27 -21 -25 -45 3 -58 9
-41 20 9 5 6 9 -12 13 -37 9 -1209 12 -1209 4 0 -11 -104 -10 -134 2 -38 14
-32 36 12 44 20 3 105 7 187 8 143 2 146 2 55 8 -65 4 -21 6 140 7 129 0 219
-3 200 -6z m-2129 -59 c29 -2 26 10 54 -197 8 -60 16 -119 18 -130 3 -11 8
-51 12 -90 3 -38 13 -113 21 -165 8 -52 21 -149 30 -215 8 -66 17 -130 21
-142 3 -13 1 -23 -5 -23 -21 0 -34 32 -35 85 -1 30 -4 55 -8 55 -3 0 -7 28 -8
62 -1 35 -5 66 -9 70 -7 7 -133 -15 -151 -27 -6 -3 -10 -60 -10 -128 0 -195 0
-197 -15 -197 -18 0 -24 34 -17 101 4 29 4 71 0 92 -3 20 -3 37 1 37 13 0 3
92 -11 100 -8 4 -40 14 -72 21 -68 15 -79 8 -82 -48 -1 -21 -9 -63 -17 -93 -8
-30 -16 -68 -17 -84 -1 -30 -18 -49 -33 -40 -5 3 -6 9 -3 14 3 5 10 35 16 67
5 32 17 90 25 128 8 39 19 90 24 115 5 25 21 101 36 170 15 69 27 131 27 138
0 6 4 12 9 12 4 0 8 15 8 34 0 19 4 37 9 40 5 3 7 16 3 28 l-5 21 21 -21 c13
-13 35 -22 52 -22 29 0 30 1 30 49 0 27 3 56 6 65 4 10 -3 19 -20 27 -20 10
-23 15 -15 26 9 10 8 13 -2 14 -10 0 -11 2 -1 6 17 7 15 23 -3 23 -8 0 -15 4
-15 9 0 14 38 18 131 13z m2269 -43 c-9 -16 -8 -25 5 -39 11 -13 15 -28 11
-43 -6 -27 23 -64 31 -39 3 6 16 12 30 12 20 0 23 -4 18 -19 -4 -14 1 -25 19
-36 14 -9 22 -23 20 -30 -7 -17 76 -25 119 -11 22 7 32 5 45 -9 16 -17 16 -17
0 -12 -11 4 -17 2 -15 -5 1 -6 -13 -14 -30 -18 -22 -5 -30 -4 -26 3 4 6 0 8
-11 4 -10 -4 -22 -7 -28 -7 -6 0 -3 -8 6 -19 14 -15 23 -17 54 -10 56 13 162
13 175 0 6 -6 20 -11 30 -11 10 0 32 -9 48 -21 16 -11 29 -16 29 -11 0 6 9 8
20 5 16 -4 20 0 20 21 0 29 24 36 34 10 5 -13 9 -14 20 -4 18 14 56 -3 56 -26
0 -8 5 -12 10 -9 6 4 10 -17 10 -54 l0 -61 -152 0 c-193 -1 -328 -6 -335 -14
-4 -3 14 -6 38 -7 24 -1 55 -4 69 -9 l25 -7 -25 -7 c-14 -4 -121 -5 -239 -4
-161 2 -215 6 -219 16 -3 9 20 12 90 13 51 1 104 5 118 9 15 5 -41 8 -140 8
-196 0 -239 2 -222 9 7 3 12 24 12 53 0 55 8 82 22 74 11 -7 48 33 48 53 0 7
4 13 8 13 4 0 8 16 9 35 1 23 -4 35 -12 35 -7 0 -15 6 -18 13 -2 6 -8 8 -13 4
-5 -5 -1 -14 9 -22 18 -13 17 -14 -5 -17 -16 -2 -23 -10 -23 -26 0 -13 -8 -28
-17 -33 -9 -5 -19 -23 -23 -39 -13 -57 -39 -31 -36 37 0 23 -3 43 -9 43 -5 0
-10 5 -10 11 0 7 10 9 24 5 25 -6 44 8 26 19 -17 11 -11 25 20 44 16 10 28 20
25 23 -9 9 -89 -9 -93 -21 -2 -6 -22 7 -43 30 -30 32 -39 48 -36 69 4 23 2 26
-24 24 -37 -3 -38 13 -1 19 15 2 125 5 245 6 l218 1 -11 -21z m-1730 -34 c102
-13 229 -30 283 -36 53 -7 97 -16 97 -21 0 -4 -7 -8 -15 -8 -8 0 -15 -4 -15
-8 0 -8 288 -52 337 -52 16 0 21 4 17 15 -10 24 14 17 63 -17 l45 -33 -48 -12
c-73 -17 -89 -16 -74 2 7 9 11 18 8 20 -3 3 -92 16 -199 30 -237 31 -249 33
-243 49 3 9 -61 22 -238 50 -134 22 -247 43 -253 48 -5 5 3 6 20 3 17 -3 113
-16 215 -30z m4310 -364 c0 -16 3 -37 7 -47 4 -12 2 -15 -8 -12 -8 3 -13 12
-11 22 2 10 -4 16 -15 16 -14 0 -18 -7 -17 -30 0 -17 4 -33 7 -36 4 -4 3 -12
-1 -18 -3 -6 -8 -28 -9 -48 -2 -30 1 -38 14 -38 15 0 15 -1 1 -12 -12 -9 -16
-27 -15 -63 2 -47 4 -50 30 -53 18 -2 29 2 33 12 10 27 22 18 28 -21 15 -111
17 -138 5 -119 -9 15 -14 44 -19 118 0 4 -6 6 -12 4 -7 -3 -26 -7 -41 -11 -22
-4 -28 -11 -26 -28 1 -12 -1 -29 -4 -37 -3 -8 -8 -22 -11 -30 -2 -8 -4 7 -4
34 1 36 -3 52 -16 62 -16 12 -16 12 1 16 16 3 18 15 19 107 1 99 0 103 -23
112 -29 11 -30 19 -1 16 20 -2 23 3 25 36 1 20 -2 37 -7 37 -6 0 -10 9 -10 20
0 17 7 20 40 20 38 0 40 -2 40 -29z m-6369 -66 c14 -93 31 -213 59 -425 16
-124 34 -254 39 -290 11 -67 24 -181 23 -190 0 -2 -5 -6 -10 -8 -11 -3 -31 95
-39 191 -2 40 -8 75 -12 79 -6 7 -46 0 -123 -24 l-37 -11 -2 -106 c0 -58 0
-129 1 -158 1 -45 -12 -75 -26 -60 -7 7 -6 216 1 278 5 43 4 47 -22 57 -25 10
-108 31 -125 32 -9 0 -28 -68 -28 -102 0 -16 -4 -28 -8 -28 -5 0 -13 -32 -18
-72 -6 -45 -14 -73 -23 -76 -21 -7 -18 9 95 543 14 66 27 130 30 143 2 12 9
22 14 22 5 0 7 -6 5 -12 -2 -7 -6 -31 -9 -53 -2 -22 -7 -52 -11 -66 -8 -31 1
-39 62 -55 l43 -11 4 31 c8 61 4 145 -7 154 -7 5 -29 12 -49 16 -43 8 -48 25
-23 72 8 16 15 22 15 14 0 -8 -5 -22 -10 -30 -19 -30 32 -60 74 -44 18 7 22
44 5 44 -5 0 -8 4 -5 9 3 5 8 26 11 46 4 31 1 38 -16 42 -18 5 -20 11 -16 39
4 26 2 34 -9 34 -8 0 -12 5 -9 10 4 7 36 10 78 8 l72 -3 6 -40z m4663 -24 c4
-5 1 -11 -5 -13 -9 -3 227 -139 294 -169 31 -14 36 -29 10 -29 -13 0 -11 -4 7
-13 152 -81 240 -130 240 -133 0 -3 -3 -3 -7 -1 -5 2 -81 37 -170 78 -90 41
-163 77 -163 81 0 3 8 8 17 10 11 2 -37 36 -120 86 -97 59 -143 81 -157 77
-16 -5 -20 -2 -20 14 0 17 6 21 34 21 19 0 37 -4 40 -9z"/>
<path d="M3665 1388 c-4 -18 -8 -44 -9 -58 -2 -14 -6 -36 -10 -50 -9 -34 1
-45 54 -58 56 -14 59 -10 58 91 -1 66 -5 80 -21 88 -10 6 -21 8 -24 5 -3 -3
-14 -1 -24 4 -15 9 -19 5 -24 -22z"/>
<path d="M3813 1403 c-13 -2 -23 -12 -23 -21 -1 -9 -3 -48 -6 -85 -3 -37 -3
-71 0 -76 3 -4 28 -3 57 3 l51 10 -7 81 c-4 44 -9 83 -11 87 -5 8 -23 8 -61 1z"/>
<path d="M3626 1198 c-3 -13 -6 -37 -6 -55 0 -17 -3 -34 -7 -36 -5 -3 -8 -29
-8 -57 l0 -53 45 -13 c61 -18 108 -16 104 5 -8 40 -11 131 -4 131 4 0 6 15 4
33 -1 17 -3 35 -3 38 -1 4 -18 10 -38 14 -21 3 -48 9 -59 11 -16 4 -23 0 -28
-18z"/>
<path d="M3824 1207 c-40 -12 -41 -13 -40 -52 1 -22 -2 -48 -6 -57 -6 -12 -5
-18 3 -18 8 0 8 -4 0 -13 -13 -16 -10 -78 5 -93 8 -9 26 -7 73 5 l63 16 -6 60
c-20 185 -13 174 -92 152z"/>
<path d="M2264 935 l-31 -14 -2 -123 c-4 -243 -4 -265 2 -281 8 -21 20 -21 87
-1 l53 16 -8 66 c-4 37 -8 81 -9 97 -1 17 -7 38 -12 48 -9 15 -15 16 -42 6
-17 -6 -37 -9 -44 -7 -6 2 10 10 36 18 l49 13 -6 72 c-10 111 -14 116 -73 90z"/>
<path d="M2075 713 c-3 -27 -10 -61 -15 -78 -5 -16 -10 -46 -12 -65 -3 -34 -1
-36 47 -52 55 -19 111 -20 108 -1 -5 25 -5 110 1 148 7 52 -11 76 -58 78 -20
1 -36 5 -36 10 0 4 -6 7 -14 7 -10 0 -17 -16 -21 -47z"/>
<path d="M5665 2814 c-5 -1 -22 -5 -37 -8 -25 -6 -28 -11 -28 -45 0 -48 8 -71
24 -71 7 0 36 7 65 16 l52 15 -3 47 c-3 44 -5 47 -33 48 -16 0 -34 0 -40 -2z"/>
<path d="M5420 2661 c-10 -38 -17 -93 -25 -197 l-4 -50 80 -19 c55 -12 83 -15
91 -7 5 5 9 34 8 63 -1 30 -1 63 -1 74 0 10 -5 25 -11 32 -7 9 -7 13 1 13 12
0 15 68 3 86 -6 9 -105 44 -126 44 -3 0 -10 -18 -16 -39z"/>
<path d="M5673 2683 c-53 -12 -64 -18 -69 -39 -8 -32 3 -118 16 -122 6 -2 5
-9 -3 -16 -7 -8 -11 -32 -9 -63 3 -44 7 -52 27 -57 13 -3 36 -1 52 5 15 6 46
14 68 18 34 6 40 10 39 31 -3 59 -17 110 -31 110 -9 0 -11 5 -7 12 5 7 9 22
10 33 2 24 -18 105 -26 104 -3 0 -33 -7 -67 -16z"/>
<path d="M7534 2616 c4 -17 2 -26 -5 -26 -9 0 -8 -4 0 -14 9 -11 8 -17 -3 -28
-16 -16 -16 -47 -1 -64 16 -17 72 -25 83 -11 5 7 9 46 8 87 l-1 75 -44 3 c-42
3 -43 3 -37 -22z"/>
<path d="M3365 2513 c-16 -2 -109 -22 -205 -44 -407 -94 -382 -91 -797 -100
-51 -2 -93 -4 -93 -6 0 -2 6 -12 13 -24 11 -18 8 -24 -21 -50 -36 -32 -69 -36
-112 -14 -17 9 -30 11 -30 5 0 -5 5 -10 12 -10 6 0 9 -3 5 -6 -3 -3 -16 1 -28
9 -11 9 -28 13 -35 10 -28 -10 -13 16 27 49 l41 34 -74 -2 c-40 -1 -155 -5
-255 -10 -174 -7 -181 -8 -160 -24 18 -14 51 -18 179 -22 123 -4 159 -8 172
-20 8 -9 13 -18 10 -21 -24 -24 362 -30 456 -8 59 14 93 19 152 23 22 1 32 5
25 10 -8 5 -6 8 8 9 48 5 180 26 200 33 23 8 33 10 100 22 39 6 99 19 135 27
190 45 298 65 325 61 18 -3 25 -2 18 3 -7 5 3 8 26 8 22 0 49 5 62 12 13 6 43
16 67 23 23 7 42 17 42 22 0 8 -206 9 -265 1z"/>
<path d="M7747 2466 c-4 -9 -18 -16 -34 -16 -36 -1 -63 -21 -63 -49 0 -11 3
-21 8 -21 4 0 6 -17 4 -37 -2 -36 -2 -75 1 -116 1 -13 7 -17 22 -13 11 3 37 9
58 12 45 8 51 16 52 72 1 30 -3 42 -13 42 -12 0 -12 3 -2 15 7 8 9 15 4 15 -5
0 -10 18 -11 41 -2 22 -7 47 -11 56 -8 14 -10 14 -15 -1z"/>
<path d="M7517 2442 c-10 -10 -17 -30 -16 -43 1 -43 -9 -141 -16 -147 -6 -6
107 -42 132 -42 8 0 10 16 6 53 -7 77 -8 81 -18 96 -6 10 -4 13 6 9 11 -4 13
3 11 34 -3 25 -9 38 -16 35 -7 -3 -20 1 -31 9 -25 19 -39 18 -58 -4z"/>
<path d="M7482 2193 c-6 -16 -13 -48 -17 -72 -5 -39 -2 -48 22 -75 16 -18 19
-23 6 -12 -31 26 -43 13 -43 -48 l0 -53 81 -18 c68 -14 83 -15 90 -4 15 24 8
152 -9 172 -15 16 -14 17 1 11 14 -5 17 0 17 35 0 23 -5 41 -11 41 -5 0 -8 4
-4 9 4 8 -86 41 -113 41 -5 0 -14 -12 -20 -27z"/>
<path d="M7731 2204 c-29 -8 -57 -16 -61 -19 -5 -3 -8 -64 -6 -136 2 -109 5
-133 18 -140 16 -9 153 16 171 31 9 8 -13 140 -23 140 -4 0 -5 16 -3 36 2 20
-1 42 -7 50 -7 7 -9 22 -5 34 8 24 -6 25 -84 4z"/>
</g>
</svg>
