<?xml version="1.0" standalone="no"?>
<!DOCTYPE svg PUBLIC "-//W3C//DTD SVG 20010904//EN"
 "http://www.w3.org/TR/2001/REC-SVG-20010904/DTD/svg10.dtd">
<svg version="1.0" xmlns="http://www.w3.org/2000/svg"
 width="1280.000000pt" height="840.000000pt" viewBox="0 0 1280.000000 840.000000"
 preserveAspectRatio="xMidYMid meet">
<g transform="translate(0.000000,840.000000) scale(0.100000,-0.100000)"
fill="#000000" stroke="none">
<path d="M9580 8358 c0 -3 22 -102 49 -219 27 -118 57 -248 66 -290 l16 -75
-51 -175 c-131 -446 -239 -736 -474 -1276 -563 -1294 -646 -1461 -912 -1841
-64 -90 -118 -170 -121 -178 -4 -11 14 -14 103 -14 59 0 105 -2 103 -4 -10
-11 -333 -30 -1834 -111 -874 -47 -1828 -99 -2120 -115 l-530 -29 -153 51
c-141 47 -232 93 -232 118 0 6 18 92 41 193 58 261 79 396 79 503 0 87 -2 97
-24 119 -13 13 -41 27 -61 31 -44 8 -205 -2 -216 -13 -5 -5 -65 -114 -135
-243 -139 -258 -142 -263 -160 -256 -6 2 -439 312 -960 687 -522 375 -956 684
-966 687 -16 4 -283 -22 -341 -34 -18 -4 -27 -11 -23 -19 2 -7 191 -251 418
-542 800 -1021 1125 -1438 1142 -1465 17 -26 17 -27 -3 -37 -11 -6 -26 -11
-35 -11 -35 0 -178 -53 -206 -76 -68 -57 -25 -134 104 -189 37 -16 65 -33 63
-39 -2 -6 -414 -218 -915 -472 -502 -253 -918 -466 -924 -472 -12 -12 40 -18
142 -16 86 2 1246 440 1760 665 180 79 338 142 355 142 17 0 93 -23 171 -50
322 -117 865 -266 1639 -452 670 -162 824 -173 1730 -132 527 25 495 24 495
10 0 -10 -1917 -968 -2735 -1366 -701 -341 -1584 -708 -2695 -1120 l-445 -165
-159 16 c-87 9 -161 15 -163 12 -2 -2 18 -7 44 -10 159 -23 424 -67 456 -76
24 -7 43 -8 50 -2 7 5 417 134 912 287 l900 278 845 323 c1291 492 1979 764
2268 896 l263 121 52 -17 c60 -19 277 -56 331 -56 22 0 65 14 107 36 39 19 73
33 76 30 10 -9 -23 -109 -38 -117 -8 -5 -36 -17 -63 -29 l-49 -20 57 -41 c31
-22 56 -43 56 -47 0 -4 5 -38 10 -75 28 -193 160 -285 475 -331 272 -40 501
-43 735 -10 136 19 183 37 243 93 193 181 194 578 2 760 -59 56 -93 72 -180
89 -98 19 -335 34 -410 26 -38 -3 -96 -6 -129 -6 -32 1 -75 -5 -95 -13 -92
-36 -171 -45 -384 -45 -191 0 -256 7 -230 23 11 7 569 216 938 351 160 58 414
141 565 185 461 133 384 120 845 142 226 10 646 23 935 29 845 16 1207 48
1540 136 383 102 571 167 741 255 220 115 388 285 389 393 0 77 -116 219 -248
304 -218 140 -478 258 -736 336 -180 55 -287 76 -451 88 -82 6 -155 15 -161
19 -8 7 -7 29 3 81 47 236 -64 491 -241 557 -72 27 -218 43 -381 44 -212 0
-290 -8 -400 -38 -88 -25 -115 -28 -220 -26 -66 1 -123 5 -128 10 -5 5 5 71
22 147 103 477 164 895 275 1914 36 327 68 609 71 625 5 28 -15 53 -251 320
-271 307 -294 333 -294 323z"/>
</g>
</svg>
