<?xml version="1.0" standalone="no"?>
<!-- Generator: Paintmaps.com , Online SVG vector map maker -->
<svg xmlns="http://www.w3.org/2000/svg" version="1.1" baseProfile="full" width="800" height="533" style="background-color:#e0f2f1">
<rect width="100%" height="100%" fill="#e0f2f1"/>
<path d="M 288.5631 252.3509 L 287.7369 252.4197 L 286.7558 251.1116 L 288.9246 250.905 L 288.5631 252.3509 Z M 288.6664 247.8755 L 289.9058 248.2886 L 289.8025 250.3542 L 287.3238 249.2526 L 288.6664 247.8755 Z M 315.7769 144.1157 L 312.7818 145.5615 L 311.5941 144.873 L 313.5048 143.6337 L 315.4154 143.2206 L 315.7769 144.1157 Z M 340.3054 131.9977 L 339.5308 132.4108 L 336.3292 132.4108 L 331.2686 134.6829 L 329.8743 135.6469 L 327.8087 136.1288 L 325.9497 137.8501 L 325.9497 136.3354 L 328.4284 134.5452 L 331.7333 133.0305 L 335.6062 131.7223 L 340.3054 131.9977 Z M 351.4077 131.378 L 349.5487 132.6174 L 350.2717 130.6895 L 351.8209 128.8994 L 353.0085 128.2797 L 354.2479 129.0371 L 351.4077 131.378 Z M 266.2035 159.4696 L 267.1846 158.368 L 269.9215 159.8827 L 270.9026 159.4696 L 274.0526 155.9582 L 275.4985 156.1647 L 277.6157 154.8566 L 276.996 153.0664 L 278.5452 152.9975 L 280.8173 152.0336 L 283.9156 151.8271 L 285.3099 150.932 L 288.15 152.2402 L 289.0795 152.0336 L 293.0041 155.6828 L 295.2762 155.9582 L 298.9426 153.7549 L 302.7122 154.65 L 305.9655 155.7516 L 309.322 156.1647 L 313.1949 157.0598 L 315.8801 157.0598 L 318.7203 156.2336 L 319.8047 155.4074 L 322.3867 156.0959 L 330.7005 155.4762 L 332.7144 156.509 L 335.4513 156.3713 L 338.9111 154.168 L 340.2021 152.791 L 342.7324 151.9648 L 347.8963 151.7582 L 350.1168 150.3812 L 351.2012 148.591 L 350.6332 147.8337 L 347.225 147.214 L 348.361 146.732 L 354.4544 147.7648 L 358.8954 149.0041 L 361.9421 151.414 L 366.2798 152.8598 L 374.7485 152.2402 L 376.8657 151.2763 L 381.2034 148.2468 L 383.9403 148.1779 L 389.2591 150.3123 L 395.714 152.2402 L 395.6107 155.4074 L 396.3853 156.1647 L 397.9861 155.9582 L 398.1926 154.8566 L 399.432 155.7516 L 402.995 155.9582 L 403.8729 155.2697 L 399.3287 154.3057 L 397.0049 152.791 L 403.4598 153.9615 L 409.6048 154.65 L 414.304 158.368 L 424.3219 166.7679 L 427.8334 168.8335 L 430.1055 169.4532 L 429.5891 170.4171 L 423.9605 167.3876 L 422.4113 165.5286 L 420.2941 164.8401 L 418.4351 165.8729 L 417.1958 165.3909 L 417.2474 166.9745 L 415.2851 164.2893 L 412.7032 164.427 L 413.8909 165.804 L 413.7359 167.0433 L 415.8015 165.1155 L 417.1441 168.145 L 416.0081 168.9712 L 417.5572 171.6564 L 419.2613 172.2761 L 419.2613 170.8302 L 420.1908 171.7253 L 420.5523 173.5154 L 422.0498 173.9285 L 423.4441 175.7875 L 425.7162 175.6498 L 427.0588 174.8925 L 424.5285 172.9646 L 420.9654 171.863 L 419.2613 170.0728 L 420.7072 169.2466 L 424.0121 170.6236 L 424.735 171.863 L 426.9039 172.6892 L 428.8145 174.2728 L 429.0211 176.8203 L 430.4153 177.3711 L 431.3448 176.0629 L 433.9268 175.3744 L 434.2882 173.8597 L 437.7997 174.2039 L 437.6448 176.958 L 435.2178 176.2007 L 434.3915 177.6465 L 436.8702 178.6105 L 437.8513 177.44 L 439.5038 176.8203 L 438.1612 173.9974 L 437.0251 173.9285 L 432.5842 172.0695 L 430.5186 170.8302 L 431.3448 169.8663 L 437.2317 173.0335 L 442.1374 174.8236 L 444.048 176.2007 L 445.1324 179.299 L 446.7849 182.2596 L 447.9209 183.1547 L 452.4652 184.876 L 447.5078 185.5645 L 447.2496 184.7383 L 444.2546 184.5317 L 442.9636 183.7744 L 442.0341 185.0826 L 440.4849 185.6334 L 438.6259 184.5317 L 438.0063 186.9416 L 435.2178 188.5251 L 434.8046 189.9022 L 432.0161 189.4202 L 431.5514 191.2792 L 430.0539 190.7973 L 429.3825 191.6923 L 427.3686 191.83 L 428.0916 192.5874 L 425.6129 193.689 L 423.599 192.6563 L 423.599 194.2399 L 419.9843 194.4464 L 416.3695 193.4825 L 417.4023 195.0661 L 414.2007 196.2366 L 411.3089 194.5153 L 411.154 197.6136 L 408.5721 197.8202 L 407.6426 196.2366 L 405.9901 198.7841 L 403.3049 199.9546 L 401.6524 198.4398 L 398.9672 198.371 L 396.7467 197.6136 L 395.3525 197.9579 L 392.7189 193.0005 L 390.9632 192.1743 L 387.8648 192.5874 L 384.3017 195.548 L 383.2173 198.2333 L 383.6304 200.6431 L 381.3067 203.0529 L 379.396 201.7447 L 378.9313 205.2562 L 377.9502 207.4594 L 376.969 208.2857 L 378.2084 209.2496 L 378.7247 210.902 L 377.5887 212.0037 L 372.7863 213.1053 L 370.1527 215.7905 L 368.8101 218.7511 L 365.9183 220.2659 L 365.2986 221.8495 L 362.9232 222.538 L 359.0503 225.2921 L 358.0175 225.1544 L 357.2946 228.115 L 358.1208 229.6298 L 354.5061 229.6298 L 353.1118 227.4953 L 351.1495 227.4265 L 347.0184 224.0527 L 347.2766 221.7806 L 344.4881 222.2626 L 342.5775 224.5347 L 341.3381 225.1544 L 340.0472 227.1511 L 337.6718 229.7675 L 336.5874 232.4527 L 334.9866 233.3478 L 333.0759 233.4855 L 331.6817 232.5904 L 330.1325 233.0723 L 328.2735 232.2461 L 323.8325 232.9346 L 321.4572 232.7281 L 320.0113 233.6232 L 319.7531 237.0658 L 320.5793 238.2362 L 320.3727 240.7149 L 321.5604 245.2591 L 321.044 246.8427 L 322.3867 250.0099 L 322.0252 251.0427 L 320.3211 251.8689 L 318.2039 250.8361 L 316.4998 251.2493 L 314.7441 252.8329 L 313.9179 255.105 L 314.3826 258.2722 L 312.1105 261.0951 L 310.1999 262.6787 L 308.3925 262.059 L 299.9237 262.6098 L 301.5762 260.8197 L 299.8721 260.6131 L 298.5811 258.5476 L 300.3368 258.2033 L 298.2196 257.5836 L 296.1024 257.6525 L 295.4828 254.6919 L 293.727 251.6624 L 292.6943 251.0427 L 295.3278 248.2886 L 297.6 247.8067 L 296.7737 246.2919 L 295.0697 245.9477 L 293.7787 248.2886 L 291.4033 248.4263 L 291.5582 247.7378 L 289.5443 247.3247 L 288.8213 244.7772 L 287.2722 245.1214 L 287.0656 247.2558 L 285.0517 248.2198 L 281.5402 246.4296 L 284.432 245.1214 L 284.8968 242.9182 L 282.9345 242.5051 L 282.5214 241.61 L 283.6574 238.4428 L 283.8124 235.6887 L 285.723 230.9379 L 282.573 228.8035 L 281.9017 227.4265 L 277.6157 228.4593 L 276.0149 228.115 L 274.3108 229.0101 L 272.2452 226.0495 L 271.6772 224.6036 L 270.3346 224.1904 L 266.3068 224.1216 L 266.2551 226.1872 L 261.7109 228.6658 L 260.5232 228.3904 L 256.7019 229.4232 L 256.8052 224.7413 L 251.7446 223.2265 L 249.6274 223.3642 L 247.6135 221.7806 L 247.6135 219.5085 L 244.2569 219.8528 L 242.7078 216.6856 L 241.2619 216.1348 L 239.9709 216.6167 L 239.3512 215.0331 L 237.7504 213.3118 L 237.234 211.3151 L 235.375 210.902 L 234.5488 208.5611 L 232.7931 210.2135 L 230.2111 209.1119 L 225.2538 207.7348 L 225.512 205.4627 L 226.6997 204.9808 L 229.5398 201.8136 L 232.6382 201.5382 L 232.7414 198.3021 L 233.3095 196.7185 L 230.3144 191.8989 L 230.1595 190.5907 L 232.4832 187.4235 L 231.7603 185.7711 L 233.5677 182.7416 L 239.6611 180.4006 L 260.6781 164.0827 L 262.3822 162.4991 L 263.6732 160.2959 L 266.2035 159.4696 Z" fill="#000" fill-opacity="1" stroke="#000" stroke-width="0" paint-order="fill" stroke-opacity="1" stroke-dasharray="" stroke-linecap="butt" stroke-linejoin="miter" stroke-miterlimit="10" transform="matrix(1.100000023841858,0,0,1.100000023841858,-40.0000114440918,-26.650001525878906)" clip-path="none" style="filter: url(#f1)"/>
<path d="M 464.6519 449.5428 L 465.0651 446.9953 L 463.0511 442.6576 L 462.8962 441.4183 L 460.7274 440.6609 L 458.7651 438.9396 L 462.4315 435.5659 L 465.5298 434.1888 L 466.356 433.0872 L 466.7691 430.6774 L 466.2528 426.8905 L 463.929 423.7233 L 463.4643 422.1398 L 464.8585 421.107 L 465.4782 418.9726 L 469.3511 417.3201 L 470.9519 415.7365 L 469.8158 413.7398 L 467.647 412.8447 L 463.8257 410.0907 L 462.6897 410.5726 L 462.3798 396.2514 L 462.7413 394.9432 L 465.4265 394.3924 L 464.7552 391.5006 L 466.5626 389.9171 L 471.0035 391.9826 L 472.2429 393.7728 L 474.4633 394.1859 L 475.083 391.8449 L 476.5289 392.1892 L 476.1158 390.7433 L 480.1953 393.8416 L 482.4157 395.976 L 483.81 396.8022 L 484.7911 396.1137 L 483.5518 399.0744 L 484.6362 400.9334 L 483.1903 401.6907 L 484.5846 404.7202 L 485.9272 405.4776 L 487.1665 404.8579 L 488.1477 405.6153 L 490.2649 404.1005 L 491.2976 404.8579 L 491.0911 406.9235 L 488.4059 406.0284 L 487.8895 406.9235 L 488.819 409.5399 L 488.6124 411.9497 L 489.6452 412.7759 L 492.4853 412.8447 L 494.1894 415.1169 L 497.9074 414.3595 L 499.405 414.9792 L 501.4189 413.4644 L 505.55 414.9103 L 506.2213 414.566 L 506.2213 412.3628 L 503.691 410.9857 L 502.3484 408.989 L 500.0763 407.13 L 502.5033 407.4054 L 501.0574 405.9596 L 502.0902 405.4776 L 504.6721 407.8186 L 503.6394 408.094 L 504.4656 409.6087 L 506.6344 409.8153 L 508.1836 411.0546 L 511.7467 416.0808 L 515.1032 419.3168 L 523.9335 420.3496 L 532.0408 419.1791 L 539.6833 416.0808 L 541.9038 415.8742 L 545.4153 411.7431 L 548.7202 409.6087 L 553.5742 407.2677 L 557.2406 406.0284 L 561.5783 405.6153 L 563.6954 404.5137 L 566.3807 403.894 L 568.7044 402.7235 L 572.3708 398.8678 L 573.1454 397.2842 L 574.488 397.2154 L 574.488 399.0744 L 575.8306 399.2809 L 576.2954 397.4219 L 577.0699 397.9727 L 577.1732 395.5629 L 579.1355 396.0449 L 580.633 394.4613 L 582.3371 393.6351 L 583.8346 391.9826 L 584.0928 389.2974 L 586.0035 387.5761 L 589.6698 386.8876 L 590.1862 389.022 L 592.3034 388.9531 L 592.5616 387.9203 L 597.0542 388.6777 L 602.4247 389.9171 L 603.8189 389.2285 L 610.7902 388.4023 L 610.6352 389.4351 L 607.6402 390.0548 L 607.5886 392.8777 L 610.6352 392.8088 L 613.4238 394.0482 L 617.7098 393.4285 L 619.9819 392.74 L 620.395 393.1531 L 624.681 394.0482 L 626.2819 393.1531 L 628.0892 393.9793 L 630.9294 394.3924 L 633.2015 395.7695 L 634.699 396.1137 L 639.6563 398.5235 L 642.1866 398.9367 L 643.2194 399.8317 L 646.6276 400.7957 L 648.7964 402.517 L 651.8431 406.4415 L 653.1341 407.2677 L 652.2562 404.7891 L 654.7865 407.0612 L 654.9931 407.9563 L 657.4201 410.6415 L 657.1103 411.33 L 658.8144 413.7398 L 661.7578 416.1496 L 661.9127 415.1169 L 665.5274 418.3529 L 665.2176 420.0053 L 667.7996 421.6578 L 671.7241 421.7266 L 669.452 423.2414 L 669.7102 424.5496 L 667.7996 427.1659 L 667.5414 429.1627 L 670.0717 429.7823 L 671.311 432.1921 L 671.6725 434.8085 L 672.4987 436.8052 L 673.9446 437.2183 L 677.6626 443.3462 L 678.9019 447.8904 L 680.1413 449.6117 L 676.32 450.369 L 674.4093 451.8149 L 672.2922 455.9461 L 673.893 458.5624 L 672.8085 459.5952 L 667.5414 463.0378 L 664.9594 465.5853 L 663.6684 465.3099 L 663.1521 463.3821 L 661.3963 460.628 L 658.7111 458.4247 L 657.6267 460.3526 L 658.1947 463.1755 L 659.0726 464.8968 L 658.866 466.6181 L 657.6267 467.8574 L 655.871 467.7886 L 653.2374 477.1524 L 651.2235 475.9131 L 648.6415 473.159 L 648.7964 471.5066 L 647.2473 469.923 L 646.6276 470.2673 L 642.7547 466.687 L 642.4448 464.2771 L 639.9662 461.4542 L 637.9006 459.9395 L 638.417 458.6313 L 636.3514 454.1559 L 633.8211 451.4018 L 632.272 446.4445 L 633.2015 444.2412 L 633.6662 445.4806 L 636.3514 445.756 L 637.7973 444.9986 L 639.5531 442.1757 L 639.2949 440.9363 L 636.9195 438.3888 L 638.7268 438.1134 L 638.7268 436.8052 L 640.0694 437.6314 L 641.5153 436.5298 L 641.4637 435.1528 L 642.4448 432.8807 L 643.4776 432.6052 L 643.7875 434.3265 L 646.4727 435.497 L 648.3833 438.7331 L 649.8808 438.1134 L 652.7726 438.7331 L 654.6833 440.4544 L 652.4112 438.1134 L 648.2284 437.2183 L 647.0923 435.979 L 645.8014 432.4675 L 646.3694 431.8479 L 644.562 429.7135 L 644.9235 428.2676 L 643.2711 426.7528 L 644.2006 428.4741 L 644.5104 432.1921 L 642.9096 430.0577 L 641.5153 431.0905 L 641.2055 432.3987 L 639.2432 433.3626 L 639.0367 432.0544 L 640.6375 431.779 L 640.0694 428.8872 L 639.3465 431.5036 L 638.7268 429.3692 L 637.1777 431.0905 L 636.4547 429.4381 L 634.4408 431.9167 L 632.7884 427.1659 L 632.6851 428.1299 L 633.8211 431.8479 L 634.699 433.0872 L 633.7179 435.2905 L 631.3941 433.2249 L 631.0843 430.884 L 630.5679 431.9856 L 629.7417 430.1266 L 629.69 428.1299 L 628.1409 426.202 L 629.9482 426.1332 L 629.122 423.9299 L 625.3523 422.8283 L 624.4228 421.3135 L 622.3057 419.7988 L 620.5499 419.3168 L 619.7237 417.7332 L 618.1745 416.5627 L 616.7803 417.389 L 615.6442 416.3562 L 614.9729 414.4283 L 610.0156 411.9497 L 607.0722 410.848 L 607.0722 408.0251 L 605.5746 407.5431 L 606.8656 409.0579 L 605.7812 410.6415 L 599.8943 409.8153 L 595.6083 409.953 L 592.0452 410.848 L 590.1862 413.1202 L 591.0125 414.7037 L 588.9469 412.3628 L 589.2567 414.0841 L 587.6559 414.9792 L 583.8346 415.8742 L 581.924 418.766 L 582.5953 421.7955 L 582.0273 423.1037 L 579.3937 424.825 L 581.2011 425.5824 L 584.2477 423.9988 L 584.1445 424.6184 L 581.4076 427.0282 L 578.0511 428.1299 L 577.6896 429.3692 L 575.5208 430.6085 L 574.1265 432.3987 L 570.047 435.2216 L 564.6766 437.9757 L 561.8364 438.0446 L 560.5971 438.5265 L 558.6348 437.7003 L 555.5365 441.2117 L 555.4332 445.5494 L 556.1562 448.3035 L 560.2356 449.9559 L 562.0946 454.0182 L 568.0848 458.9067 L 571.5962 463.2444 L 573.4036 466.4115 L 573.8167 468.3394 L 572.9905 470.1296 L 568.5495 471.4377 L 563.902 471.5066 L 560.2356 473.159 L 560.6487 475.5689 L 559.4611 475.7754 L 557.034 478.3918 L 555.898 478.1852 L 546.9644 479.7 L 541.9038 479.7 L 538.8055 478.2541 L 540.0448 475.5 L 539.9932 473.641 L 539.0637 473.0902 L 539.2702 470.7492 L 537.2563 468.6148 L 538.0309 466.8935 L 537.0498 465.1034 L 534.6227 462.2116 L 535.7071 461.9362 L 534.2612 460.7657 L 534.9326 459.6641 L 533.0219 458.9755 L 532.6604 457.8739 L 534.0547 456.7723 L 533.7965 453.3297 L 532.5572 456.0149 L 530.8531 456.0149 L 528.6326 455.3264 L 529.717 458.0805 L 527.7547 460.5591 L 528.5293 461.0411 L 528.6326 463.7952 L 527.8064 464.9657 L 525.4826 463.5886 L 521.0417 462.6247 L 520.0089 462.6935 L 519.0278 461.3854 L 516.1876 461.1788 L 517.5819 459.8018 L 516.0843 459.3887 L 515.6196 460.146 L 514.3286 459.3887 L 513.8122 457.7362 L 514.5352 455.7395 L 513.2958 455.7395 L 512.4696 454.4313 L 512.9344 450.7822 L 511.7467 452.0215 L 509.836 448.2346 L 510.3524 447.6838 L 507.4606 443.0707 L 507.7188 444.3789 L 506.6861 445.6871 L 502.5033 443.8281 L 500.0246 443.1396 L 500.7476 441.556 L 498.9918 443.0707 L 497.7009 442.1068 L 495.9452 442.4511 L 493.828 441.6249 L 492.8985 444.4478 L 492.7952 442.4511 L 490.8329 442.8642 L 489.6968 437.6314 L 489.0772 439.1462 L 487.7862 438.8019 L 487.6313 437.4937 L 485.0493 437.838 L 485.3075 438.8708 L 483.1903 439.697 L 481.951 439.0773 L 481.6412 437.4249 L 480.7117 438.6642 L 481.2281 439.9724 L 479.0076 440.179 L 473.4822 438.4577 L 470.5388 438.7331 L 467.9052 439.5593 L 465.8913 441.1429 L 465.3749 442.5199 L 465.5815 445.6871 L 466.4593 448.2346 L 465.4265 449.8871 L 464.6519 449.5428 Z M 654.6833 440.4544 L 655.3546 441.1429 L 655.4062 441.1429 L 655.4062 441.1429 L 655.4062 441.1429 L 655.4062 441.1429 L 655.7677 441.4183 L 656.9554 443.2084 L 658.1431 443.1396 L 655.9742 441.0052 L 655.4062 441.1429 L 655.4062 441.1429 L 655.4062 441.1429 L 655.4062 441.1429 L 654.6833 440.4544 Z M 534.3129 466.9624 L 532.9186 467.7886 L 531.1629 467.3755 L 528.8908 469.3722 L 526.567 469.5099 L 527.6515 468.3394 L 529.4588 467.9263 L 530.3883 466.7558 L 532.7121 465.9984 L 534.7776 466.205 L 534.3129 466.9624 Z M 508.2352 463.864 L 509.5262 467.3066 L 510.8688 468.9591 L 509.4229 469.6476 L 509.0614 471.2312 L 510.6623 473.5033 L 512.7278 473.4344 L 514.0188 475.5689 L 511.7467 476.1197 L 510.4041 475.3623 L 508.0803 475.1557 L 504.4656 472.1263 L 502.9164 468.8214 L 503.8459 468.8214 L 504.827 466.5493 L 508.2352 463.864 Z M 489.955 442.4511 L 488.7157 442.8642 L 488.9739 444.0347 L 486.3919 442.4511 L 487.9411 441.6937 L 489.955 442.4511 Z M 486.2887 440.4544 L 486.3919 441.4871 L 483.2936 442.3134 L 482.0543 440.7298 L 483.1387 440.8675 L 485.0493 439.4216 L 486.2887 440.4544 Z M 608.2599 438.7331 L 606.8656 439.0085 L 606.1943 440.7298 L 605.4714 439.4216 L 606.0394 437.1495 L 606.9172 436.5298 L 608.2599 438.7331 Z M 615.7475 431.1594 L 616.8319 433.2938 L 616.9352 435.4282 L 616.0573 437.2183 L 613.7336 437.7691 L 614.4049 440.179 L 613.4754 439.6281 L 613.0106 437.7691 L 611.8746 436.9429 L 612.391 435.3593 L 611.668 431.0905 L 614.7147 430.402 L 615.7475 431.1594 Z M 490.8329 399.2809 L 491.7624 399.1432 L 494.4476 400.9334 L 491.9173 402.6547 L 491.6591 400.176 L 490.8329 399.2809 Z M 488.6124 399.694 L 485.3075 396.8711 L 487.6313 395.7695 L 488.9739 398.317 L 488.6124 399.694 Z" fill="#000" fill-opacity="1" stroke="#000" stroke-width="0" paint-order="fill" stroke-opacity="1" stroke-dasharray="" stroke-linecap="butt" stroke-linejoin="miter" stroke-miterlimit="10" transform="matrix(1.100000023841858,0,0,1.100000023841858,-40.0000114440918,-26.650001525878906)" clip-path="none" style="filter: url(#f1)"/>
<path d="M 380.3256 371.6024 L 382.0813 372.3598 L 379.8092 372.7041 L 378.3116 371.1205 L 381.5649 371.3959 L 380.3256 371.6024 Z M 435.6825 339.9305 L 437.4382 342.5469 L 438.0579 345.6453 L 436.5087 342.5469 L 437.1284 346.7469 L 438.3161 345.8518 L 440.1751 350.878 L 442.4988 356.2485 L 445.1841 360.655 L 452.4135 370.0188 L 456.8545 374.7696 L 459.0749 374.6319 L 459.4364 376.2155 L 461.9667 379.8647 L 466.356 384.6843 L 467.2855 384.34 L 467.7503 386.4745 L 468.6798 387.6449 L 471.1585 388.4712 L 473.7404 388.6089 L 476.1158 390.7433 L 476.5289 392.1892 L 475.083 391.8449 L 474.4633 394.1859 L 472.2429 393.7728 L 471.0035 391.9826 L 466.5626 389.9171 L 464.7552 391.5006 L 465.4265 394.3924 L 462.7413 394.9432 L 462.3798 396.2514 L 462.6897 410.5726 L 463.8257 410.0907 L 467.647 412.8447 L 469.8158 413.7398 L 470.9519 415.7365 L 469.3511 417.3201 L 465.4782 418.9726 L 464.8585 421.107 L 463.4643 422.1398 L 463.929 423.7233 L 466.2528 426.8905 L 466.7691 430.6774 L 466.356 433.0872 L 465.5298 434.1888 L 462.4315 435.5659 L 458.7651 438.9396 L 460.7274 440.6609 L 462.8962 441.4183 L 463.0511 442.6576 L 465.0651 446.9953 L 464.6519 449.5428 L 464.1356 449.1297 L 464.5487 446.8576 L 461.9667 442.4511 L 461.0372 441.556 L 456.3897 438.1134 L 455.0987 436.8741 L 456.9577 434.5331 L 457.0094 433.2938 L 455.5119 430.8151 L 456.8028 430.0577 L 454.4791 429.5069 L 456.0282 428.543 L 454.2209 426.7528 L 451.6389 427.2348 L 450.916 426.202 L 448.6955 425.5135 L 448.1791 423.5168 L 446.2685 422.8971 L 444.8226 423.8611 L 442.6021 423.9299 L 445.5455 428.6807 L 449.9348 430.402 L 449.6767 432.1921 L 450.2447 433.0184 L 449.9865 436.6675 L 447.766 436.2544 L 443.4283 434.1888 L 439.1939 434.1888 L 437.7481 432.4675 L 434.4948 429.4381 L 433.1006 428.6118 L 432.9973 427.3725 L 434.3915 425.3758 L 435.6825 425.1692 L 437.0768 423.2414 L 437.1284 421.9332 L 439.0907 420.8316 L 436.7669 420.7627 L 438.6259 419.3168 L 437.5415 417.2513 L 439.039 417.7332 L 436.9735 415.6677 L 437.9546 414.3595 L 436.9735 411.7431 L 435.8891 411.0546 L 433.3071 407.612 L 431.8096 407.4054 L 431.035 405.6153 L 429.0727 404.7891 L 426.1293 401.9661 L 422.8244 400.3137 L 416.4212 398.1793 L 416.7826 397.4908 L 415.2851 395.6318 L 410.9474 394.7367 L 405.9901 393.3596 L 403.6147 393.6351 L 400.0516 391.4318 L 399.6385 390.3302 L 397.7279 388.6777 L 397.7279 387.0941 L 399.3287 384.6843 L 399.3287 383.6515 L 396.9533 380.4155 L 395.9205 379.8647 L 396.4885 378.3499 L 395.6107 376.6975 L 394.5263 376.3532 L 391.273 376.7663 L 393.5968 375.9401 L 391.3246 375.7336 L 389.5173 374.9073 L 385.1796 371.1205 L 382.3395 368.9861 L 379.1379 369.2615 L 376.969 367.6779 L 376.2461 366.4385 L 377.2789 372.1533 L 378.4149 372.5664 L 378.7764 374.2188 L 380.3256 375.527 L 385.1796 377.5926 L 387.2452 377.5237 L 389.0525 379.1073 L 388.3296 379.8647 L 389.2591 380.9663 L 388.2263 381.7237 L 390.8083 382.2056 L 389.0525 383.2384 L 387.2968 385.8548 L 385.4894 385.2351 L 385.8509 386.8876 L 383.4755 388.1958 L 382.4944 391.1564 L 381.41 392.3957 L 380.3772 390.2613 L 375.5231 383.8581 L 373.4059 382.1368 L 369.3781 380.7597 L 368.2937 381.3106 L 362.0454 379.245 L 361.0642 379.4516 L 360.5995 377.3171 L 356.7782 372.6352 L 354.3512 366.9205 L 353.8348 364.7172 L 354.5577 363.8222 L 353.1635 362.2386 L 354.8159 360.0353 L 355.4872 360.2419 L 356.8815 358.7271 L 355.5905 356.937 L 356.6233 355.0091 L 357.3979 355.4222 L 359.5667 354.3206 L 362.1486 352.0485 L 361.3741 351.1534 L 359.8765 352.737 L 361.0126 349.8452 L 360.9093 346.0584 L 357.8626 344.6813 L 357.088 345.0944 L 355.7971 343.924 L 351.8725 342.065 L 350.4782 341.8584 L 352.8536 340.6191 L 353.0085 339.724 L 354.8159 339.6551 L 356.0552 341.3076 L 356.52 340.0683 L 359.2052 340.4125 L 359.7733 338.8289 L 357.8626 336.9011 L 358.8437 336.0748 L 360.7544 336.2125 L 359.5151 334.6289 L 362.097 330.2224 L 363.3363 329.7405 L 366.6412 331.8749 L 388.0198 339.724 L 389.7238 339.5174 L 396.282 335.1109 L 397.418 334.7667 L 399.4836 336.0748 L 400.9295 336.1437 L 404.3893 337.5896 L 405.2155 338.6224 L 407.0229 339.1043 L 409.3466 337.5896 L 410.9991 340.4125 L 412.7548 341.0322 L 414.8204 342.6158 L 414.1491 344.1994 L 415.4917 345.6453 L 417.5056 345.301 L 419.7777 346.2649 L 421.74 345.3699 L 425.0965 347.9174 L 427.8334 347.7797 L 428.7112 346.7469 L 433.7719 345.1633 L 435.0628 344.4748 L 434.7014 340.0683 L 435.6825 339.9305 Z" fill="#000" fill-opacity="1" stroke="#000" stroke-width="0" paint-order="fill" stroke-opacity="1" stroke-dasharray="" stroke-linecap="butt" stroke-linejoin="miter" stroke-miterlimit="10" transform="matrix(1.100000023841858,0,0,1.100000023841858,-40.0000114440918,-26.650001525878906)" clip-path="none" style="filter: url(#f1)"/>
<path d="M 282.573 98.0537 L 281.7984 98.9488 L 281.7984 94.8865 L 282.7796 97.3652 L 282.573 98.0537 Z M 283.0894 89.8603 L 283.3476 90.6177 L 282.4181 92.6833 L 281.0755 94.2669 L 280.3526 93.716 L 279.1132 95.1619 L 278.1321 99.4996 L 277.6157 98.9488 L 278.7517 93.8537 L 280.6107 92.2013 L 281.9534 92.4767 L 282.573 91.3751 L 281.7468 89.3095 L 283.0894 89.8603 Z M 270.6961 84.4899 L 269.56 84.5587 L 273.0198 82.1489 L 272.6583 83.3194 L 270.6961 84.4899 Z M 281.1271 66.1064 L 278.9583 71.1326 L 277.9772 74.2309 L 276.8411 75.3326 L 278.0288 69.4113 L 279.0616 66.2441 L 281.1271 66.1064 Z M 233.9291 78.7752 L 233.9291 75.4703 L 235.0136 72.8539 L 238.0086 71.8211 L 240.4873 73.6801 L 241.675 73.749 L 242.1397 74.8506 L 243.9987 76.0211 L 244.8766 74.5063 L 247.0971 72.785 L 247.7684 70.926 L 249.2659 69.8933 L 250.8151 66.1753 L 250.7118 65.0736 L 253.6036 62.9392 L 253.9134 61.0802 L 255.8241 58.5327 L 256.6503 55.0901 L 258.2511 53.5065 L 259.2839 53.9196 L 260.9363 53.3 L 261.7625 53.9196 L 264.6543 53.7131 L 265.4805 54.4016 L 264.7576 55.3655 L 261.9691 57.3622 L 262.6404 58.4638 L 264.3445 57.7753 L 262.7953 60.254 L 266.41 58.2573 L 268.7338 59.0835 L 272.4518 57.913 L 270.6444 59.7032 L 272.4002 59.5655 L 272.6583 64.0409 L 272.3485 67.5523 L 270.2313 73.1293 L 269.6633 73.5424 L 268.1141 76.5031 L 267.9076 80.6342 L 266.9781 83.8014 L 265.7387 85.5227 L 265.3773 87.9325 L 267.701 89.9292 L 269.5084 90.5488 L 269.0953 91.2374 L 267.2363 91.0997 L 266.7199 92.0636 L 265.1707 97.0898 L 264.6543 103.2176 L 265.3773 106.4536 L 266.5133 106.9356 L 267.3912 109.07 L 267.5977 111.6864 L 266.6682 111.8929 L 265.1707 114.0962 L 266.3068 117.1257 L 264.4994 118.6404 L 264.2928 123.1158 L 263.2601 123.8043 L 261.1429 126.9715 L 261.8658 127.7289 L 261.3494 129.3125 L 259.1289 132.8928 L 258.0962 133.3747 L 256.2372 136.1288 L 255.8757 137.437 L 253.8618 137.8501 L 251.7446 136.955 L 251.3831 138.1255 L 248.4913 139.0895 L 248.2848 141.9124 L 246.5807 143.0829 L 246.0127 144.2534 L 244.4118 145.4927 L 244.2053 146.6632 L 241.6233 148.3156 L 242.0881 151.7582 L 240.6938 152.309 L 237.4922 151.414 L 232.5349 151.414 L 230.6759 152.1713 L 230.521 149.3484 L 231.5021 140.5354 L 232.5349 128.8305 L 234.0324 108.3126 L 234.0841 97.5029 L 233.9291 78.7752 Z" fill="#000" fill-opacity="1" stroke="#000" stroke-width="0" paint-order="fill" stroke-opacity="1" stroke-dasharray="" stroke-linecap="butt" stroke-linejoin="miter" stroke-miterlimit="10" transform="matrix(1.100000023841858,0,0,1.100000023841858,-40.0000114440918,-26.650001525878906)" clip-path="none" style="filter: url(#f1)"/>
<path d="M 467.3888 208.4922 L 464.8069 208.6988 L 466.0978 206.7709 L 467.1823 206.4955 L 467.3888 208.4922 Z M 359.5151 334.6289 L 356.3651 333.4585 L 355.0741 330.3601 L 351.0979 325.9536 L 348.6192 324.7143 L 346.8119 322.6487 L 342.4226 319.4127 L 341.9062 317.9668 L 339.3759 316.1078 L 335.9677 314.593 L 334.4702 312.3898 L 330.0809 309.016 L 328.3768 305.8488 L 326.621 304.2652 L 325.1235 301.1669 L 322.903 298.9636 L 321.5088 296.5538 L 320.2178 292.9047 L 318.9268 291.5965 L 311.3876 286.9146 L 307.7212 283.8851 L 305.1909 282.7146 L 307.8761 283.4031 L 304.9843 281.4064 L 303.4352 279.6851 L 298.7877 276.3114 L 294.7598 271.6294 L 294.45 269.977 L 292.023 269.3573 L 287.7369 266.7409 L 286.291 264.9508 L 286.9623 262.541 L 290.0607 259.718 L 291.3516 259.9246 L 294.2951 262.541 L 295.4828 264.8819 L 297.0836 265.1573 L 300.8532 264.9508 L 297.9614 264.6065 L 297.9098 263.6426 L 299.9237 262.6098 L 308.3925 262.059 L 310.1999 262.6787 L 312.1105 261.0951 L 314.3826 258.2722 L 313.9179 255.105 L 314.7441 252.8329 L 316.4998 251.2493 L 318.2039 250.8361 L 320.3211 251.8689 L 322.0252 251.0427 L 322.3867 250.0099 L 321.044 246.8427 L 321.5604 245.2591 L 320.3727 240.7149 L 320.5793 238.2362 L 319.7531 237.0658 L 320.0113 233.6232 L 321.4572 232.7281 L 323.8325 232.9346 L 328.2735 232.2461 L 330.1325 233.0723 L 331.6817 232.5904 L 333.0759 233.4855 L 334.9866 233.3478 L 336.5874 232.4527 L 337.6718 229.7675 L 340.0472 227.1511 L 341.3381 225.1544 L 342.5775 224.5347 L 344.4881 222.2626 L 347.2766 221.7806 L 347.0184 224.0527 L 351.1495 227.4265 L 353.1118 227.4953 L 354.5061 229.6298 L 358.1208 229.6298 L 357.2946 228.115 L 358.0175 225.1544 L 359.0503 225.2921 L 362.9232 222.538 L 365.2986 221.8495 L 365.9183 220.2659 L 368.8101 218.7511 L 370.1527 215.7905 L 372.7863 213.1053 L 377.5887 212.0037 L 378.7247 210.902 L 378.2084 209.2496 L 376.969 208.2857 L 377.9502 207.4594 L 378.9313 205.2562 L 379.396 201.7447 L 381.3067 203.0529 L 383.6304 200.6431 L 383.2173 198.2333 L 384.3017 195.548 L 387.8648 192.5874 L 390.9632 192.1743 L 392.7189 193.0005 L 395.3525 197.9579 L 396.7467 197.6136 L 398.9672 198.371 L 401.6524 198.4398 L 403.3049 199.9546 L 405.9901 198.7841 L 407.6426 196.2366 L 408.5721 197.8202 L 411.154 197.6136 L 411.3089 194.5153 L 414.2007 196.2366 L 417.4023 195.0661 L 416.3695 193.4825 L 419.9843 194.4464 L 423.599 194.2399 L 423.599 192.6563 L 425.6129 193.689 L 428.0916 192.5874 L 427.3686 191.83 L 429.3825 191.6923 L 430.0539 190.7973 L 431.5514 191.2792 L 432.0161 189.4202 L 434.8046 189.9022 L 435.2178 188.5251 L 438.0063 186.9416 L 438.6259 184.5317 L 440.4849 185.6334 L 442.0341 185.0826 L 442.9636 183.7744 L 444.2546 184.5317 L 447.2496 184.7383 L 447.5078 185.5645 L 452.4652 184.876 L 451.1742 185.9776 L 450.6578 185.358 L 448.6955 187.8366 L 446.8365 191.4858 L 446.0103 188.2497 L 443.7898 189.3514 L 442.189 191.4858 L 443.2218 193.8267 L 445.0291 195.1349 L 446.4234 193.5513 L 448.7472 202.9152 L 450.6062 208.0791 L 450.6578 210.902 L 449.6767 213.3118 L 445.0291 221.0921 L 443.2734 222.3314 L 442.0857 224.6036 L 439.9169 232.9346 L 439.0907 237.2723 L 439.039 240.7838 L 437.6964 245.2591 L 437.3349 250.1476 L 439.8136 264.7442 L 438.7292 274.7966 L 438.7808 276.931 L 440.8464 281.131 L 440.6398 283.8162 L 436.044 284.7801 L 436.5604 283.3343 L 435.3727 281.131 L 435.2178 277.6195 L 437.0251 277.8261 L 437.903 276.5868 L 438.5226 268.7376 L 435.8891 268.0491 L 434.8046 269.2196 L 436.044 271.1475 L 436.9735 275.0032 L 433.8751 277.413 L 430.467 278.3769 L 430.2088 280.8556 L 431.7063 280.9933 L 432.2743 283.0589 L 431.7579 285.331 L 432.7391 286.3637 L 433.8751 286.0883 L 434.0817 288.085 L 435.2178 285.4687 L 436.0956 285.8818 L 434.3915 289.3932 L 433.6169 293.9375 L 433.9784 298.7571 L 432.2743 296.2784 L 433.1006 295.5211 L 432.5325 293.8686 L 431.7063 297.1735 L 430.6735 297.5178 L 430.9834 301.1669 L 428.1949 304.0587 L 430.1571 306.262 L 431.7063 306.5374 L 431.9645 304.6784 L 433.2555 304.8161 L 435.0628 311.7701 L 435.1145 313.8357 L 431.1383 315.9701 L 429.9506 320.3077 L 428.9178 320.17 L 427.2654 322.993 L 427.2654 326.7798 L 428.453 331.7372 L 431.7063 337.7961 L 433.7719 339.5174 L 435.6825 339.9305 L 434.7014 340.0683 L 435.0628 344.4748 L 433.7719 345.1633 L 428.7112 346.7469 L 427.8334 347.7797 L 425.0965 347.9174 L 421.74 345.3699 L 419.7777 346.2649 L 417.5056 345.301 L 415.4917 345.6453 L 414.1491 344.1994 L 414.8204 342.6158 L 412.7548 341.0322 L 410.9991 340.4125 L 409.3466 337.5896 L 407.0229 339.1043 L 405.2155 338.6224 L 404.3893 337.5896 L 400.9295 336.1437 L 399.4836 336.0748 L 397.418 334.7667 L 396.282 335.1109 L 389.7238 339.5174 L 388.0198 339.724 L 366.6412 331.8749 L 363.3363 329.7405 L 362.097 330.2224 L 359.5151 334.6289 Z" fill="#000" fill-opacity="1" stroke="#000" stroke-width="0" paint-order="fill" stroke-opacity="1" stroke-dasharray="" stroke-linecap="butt" stroke-linejoin="miter" stroke-miterlimit="10" transform="matrix(1.100000023841858,0,0,1.100000023841858,-40.0000114440918,-26.650001525878906)" clip-path="none" style="filter: url(#f1)"/>
<path d="M 242.0881 151.7582 L 243.7922 153.0664 L 246.684 153.1353 L 252.4675 157.1975 L 252.106 159.1254 L 253.5003 158.9877 L 255.256 155.5451 L 255.256 153.9615 L 257.4765 153.6861 L 252.7774 149.6238 L 253.2937 149.0041 L 255.3077 150.0369 L 258.974 153.273 L 262.692 155.0631 L 265.8936 157.7483 L 267.133 158.368 L 266.2035 159.4696 L 263.6732 160.2959 L 262.3822 162.4991 L 260.6781 164.0827 L 239.6611 180.4006 L 233.5677 182.7416 L 231.7603 185.7711 L 232.4832 187.4235 L 230.1595 190.5907 L 230.3144 191.8989 L 233.3095 196.7185 L 232.7414 198.3021 L 232.6382 201.5382 L 229.5398 201.8136 L 226.6997 204.9808 L 225.512 205.4627 L 225.2538 207.7348 L 223.9112 206.5644 L 222.7235 207.5971 L 220.7612 207.2529 L 218.6956 208.9742 L 217.6629 207.8037 L 216.8883 208.7676 L 217.4047 210.007 L 216.5785 210.9709 L 218.3342 212.4856 L 219.0055 214.8954 L 215.0293 215.7905 L 212.3957 217.7184 L 210.7949 220.4724 L 210.4334 222.2626 L 207.7482 221.0921 L 206.1474 221.7118 L 200.8802 225.6363 L 199.9507 227.2199 L 198.0401 228.597 L 197.4204 230.9379 L 198.195 233.5543 L 186.9377 228.4593 L 183.3746 227.0134 L 180.4312 226.256 L 175.7837 225.5675 L 168.3477 226.1872 L 163.442 225.9806 L 159.001 225.4298 L 153.4757 224.1904 L 144.9036 220.197 L 137.261 215.3085 L 132.0455 211.3151 L 126.9332 206.4266 L 119.8587 200.9873 L 121.253 200.0923 L 122.957 196.4431 L 123.112 195.1349 L 122.1308 190.8661 L 123.5251 187.5612 L 123.6284 183.9809 L 125.4874 183.1547 L 126.6234 181.0203 L 122.0275 174.6859 L 122.0275 172.7581 L 139.1717 144.3222 L 140.2045 143.496 L 185.182 144.3222 L 186.5246 143.9779 L 186.1631 142.6009 L 187.4024 140.8108 L 186.1115 139.8468 L 186.7828 135.3026 L 189.2098 133.0993 L 188.6934 131.1026 L 185.75 130.6207 L 183.323 128.2797 L 180.1214 128.4863 L 180.8443 127.1781 L 179.605 126.765 L 180.173 124.3551 L 178.9337 124.5617 L 178.9853 122.083 L 176.5583 118.4339 L 173.1501 116.1618 L 170.6714 115.3355 L 168.2444 113.4077 L 167.3665 113.4077 L 164.733 111.6864 L 162.8223 107.8307 L 161.0666 107.4176 L 159.1559 104.3881 L 157.9166 103.6996 L 156.8838 101.2209 L 154.1986 101.0832 L 153.8888 100.1881 L 151.4101 99.2242 L 151.8749 98.6045 L 167.6764 99.0176 L 168.1411 78.0866 L 169.2255 77.6047 L 233.9291 78.7752 L 234.0841 97.5029 L 234.0324 108.3126 L 232.5349 128.8305 L 231.5021 140.5354 L 230.521 149.3484 L 230.6759 152.1713 L 232.5349 151.414 L 237.4922 151.414 L 240.6938 152.309 L 242.0881 151.7582 Z" fill="#000" fill-opacity="1" stroke="#000" stroke-width="0" paint-order="fill" stroke-opacity="1" stroke-dasharray="" stroke-linecap="butt" stroke-linejoin="miter" stroke-miterlimit="10" transform="matrix(1.100000023841858,0,0,1.100000023841858,-40.0000114440918,-26.650001525878906)" clip-path="none" style="filter: url(#f1)"/>
<path d="M 281.5402 246.4296 L 280.7657 245.1214 L 279.4231 248.0132 L 282.4697 250.2853 L 282.2116 251.8001 L 278.7517 253.7279 L 277.4091 255.7935 L 272.3485 255.4492 L 267.133 255.7246 L 258.8191 254.7607 L 259.5937 253.3837 L 257.838 251.8001 L 258.2511 253.1771 L 255.3593 252.5574 L 254.4814 251.2493 L 252.3126 250.9739 L 248.7495 251.2493 L 250.3503 252.0066 L 253.2937 251.6624 L 255.1011 253.3837 L 252.829 253.0394 L 257.3732 254.2099 L 257.1667 255.2427 L 255.4109 254.2099 L 245.961 252.3509 L 235.7365 247.5313 L 231.3988 244.7083 L 228.9202 243.6067 L 224.0661 242.7116 L 218.8506 242.7116 L 213.2736 241.0592 L 208.5228 241.3346 L 207.49 238.6494 L 203.3589 236.033 L 198.195 233.5543 L 197.4204 230.9379 L 198.0401 228.597 L 199.9507 227.2199 L 200.8802 225.6363 L 206.1474 221.7118 L 207.7482 221.0921 L 210.4334 222.2626 L 210.7949 220.4724 L 212.3957 217.7184 L 215.0293 215.7905 L 219.0055 214.8954 L 218.3342 212.4856 L 216.5785 210.9709 L 217.4047 210.007 L 216.8883 208.7676 L 217.6629 207.8037 L 218.6956 208.9742 L 220.7612 207.2529 L 222.7235 207.5971 L 223.9112 206.5644 L 225.2538 207.7348 L 230.2111 209.1119 L 232.7931 210.2135 L 234.5488 208.5611 L 235.375 210.902 L 237.234 211.3151 L 237.7504 213.3118 L 239.3512 215.0331 L 239.9709 216.6167 L 241.2619 216.1348 L 242.7078 216.6856 L 244.2569 219.8528 L 247.6135 219.5085 L 247.6135 221.7806 L 249.6274 223.3642 L 251.7446 223.2265 L 256.8052 224.7413 L 256.7019 229.4232 L 260.5232 228.3904 L 261.7109 228.6658 L 266.2551 226.1872 L 266.3068 224.1216 L 270.3346 224.1904 L 271.6772 224.6036 L 272.2452 226.0495 L 274.3108 229.0101 L 276.0149 228.115 L 277.6157 228.4593 L 281.9017 227.4265 L 282.573 228.8035 L 285.723 230.9379 L 283.8124 235.6887 L 283.6574 238.4428 L 282.5214 241.61 L 282.9345 242.5051 L 284.8968 242.9182 L 284.432 245.1214 L 281.5402 246.4296 Z" fill="#000" fill-opacity="1" stroke="#000" stroke-width="0" paint-order="fill" stroke-opacity="1" stroke-dasharray="" stroke-linecap="butt" stroke-linejoin="miter" stroke-miterlimit="10" transform="matrix(1.100000023841858,0,0,1.100000023841858,-40.0000114440918,-26.650001525878906)" clip-path="none" style="filter: url(#f1)"/>
<path d="M 288.5631 252.3509 L 287.7369 252.4197 L 286.7558 251.1116 L 288.9246 250.905 L 288.5631 252.3509 Z M 288.6664 247.8755 L 289.9058 248.2886 L 289.8025 250.3542 L 287.3238 249.2526 L 288.6664 247.8755 Z M 315.7769 144.1157 L 312.7818 145.5615 L 311.5941 144.873 L 313.5048 143.6337 L 315.4154 143.2206 L 315.7769 144.1157 Z M 340.3054 131.9977 L 339.5308 132.4108 L 336.3292 132.4108 L 331.2686 134.6829 L 329.8743 135.6469 L 327.8087 136.1288 L 325.9497 137.8501 L 325.9497 136.3354 L 328.4284 134.5452 L 331.7333 133.0305 L 335.6062 131.7223 L 340.3054 131.9977 Z M 351.4077 131.378 L 349.5487 132.6174 L 350.2717 130.6895 L 351.8209 128.8994 L 353.0085 128.2797 L 354.2479 129.0371 L 351.4077 131.378 Z M 266.2035 159.4696 L 267.1846 158.368 L 269.9215 159.8827 L 270.9026 159.4696 L 274.0526 155.9582 L 275.4985 156.1647 L 277.6157 154.8566 L 276.996 153.0664 L 278.5452 152.9975 L 280.8173 152.0336 L 283.9156 151.8271 L 285.3099 150.932 L 288.15 152.2402 L 289.0795 152.0336 L 293.0041 155.6828 L 295.2762 155.9582 L 298.9426 153.7549 L 302.7122 154.65 L 305.9655 155.7516 L 309.322 156.1647 L 313.1949 157.0598 L 315.8801 157.0598 L 318.7203 156.2336 L 319.8047 155.4074 L 322.3867 156.0959 L 330.7005 155.4762 L 332.7144 156.509 L 335.4513 156.3713 L 338.9111 154.168 L 340.2021 152.791 L 342.7324 151.9648 L 347.8963 151.7582 L 350.1168 150.3812 L 351.2012 148.591 L 350.6332 147.8337 L 347.225 147.214 L 348.361 146.732 L 354.4544 147.7648 L 358.8954 149.0041 L 361.9421 151.414 L 366.2798 152.8598 L 374.7485 152.2402 L 376.8657 151.2763 L 381.2034 148.2468 L 383.9403 148.1779 L 389.2591 150.3123 L 395.714 152.2402 L 395.6107 155.4074 L 396.3853 156.1647 L 397.9861 155.9582 L 398.1926 154.8566 L 399.432 155.7516 L 402.995 155.9582 L 403.8729 155.2697 L 399.3287 154.3057 L 397.0049 152.791 L 403.4598 153.9615 L 409.6048 154.65 L 414.304 158.368 L 424.3219 166.7679 L 427.8334 168.8335 L 430.1055 169.4532 L 429.5891 170.4171 L 423.9605 167.3876 L 422.4113 165.5286 L 420.2941 164.8401 L 418.4351 165.8729 L 417.1958 165.3909 L 417.2474 166.9745 L 415.2851 164.2893 L 412.7032 164.427 L 413.8909 165.804 L 413.7359 167.0433 L 415.8015 165.1155 L 417.1441 168.145 L 416.0081 168.9712 L 417.5572 171.6564 L 419.2613 172.2761 L 419.2613 170.8302 L 420.1908 171.7253 L 420.5523 173.5154 L 422.0498 173.9285 L 423.4441 175.7875 L 425.7162 175.6498 L 427.0588 174.8925 L 424.5285 172.9646 L 420.9654 171.863 L 419.2613 170.0728 L 420.7072 169.2466 L 424.0121 170.6236 L 424.735 171.863 L 426.9039 172.6892 L 428.8145 174.2728 L 429.0211 176.8203 L 430.4153 177.3711 L 431.3448 176.0629 L 433.9268 175.3744 L 434.2882 173.8597 L 437.7997 174.2039 L 437.6448 176.958 L 435.2178 176.2007 L 434.3915 177.6465 L 436.8702 178.6105 L 437.8513 177.44 L 439.5038 176.8203 L 438.1612 173.9974 L 437.0251 173.9285 L 432.5842 172.0695 L 430.5186 170.8302 L 431.3448 169.8663 L 437.2317 173.0335 L 442.1374 174.8236 L 444.048 176.2007 L 445.1324 179.299 L 446.7849 182.2596 L 447.9209 183.1547 L 452.4652 184.876 L 447.5078 185.5645 L 447.2496 184.7383 L 444.2546 184.5317 L 442.9636 183.7744 L 442.0341 185.0826 L 440.4849 185.6334 L 438.6259 184.5317 L 438.0063 186.9416 L 435.2178 188.5251 L 434.8046 189.9022 L 432.0161 189.4202 L 431.5514 191.2792 L 430.0539 190.7973 L 429.3825 191.6923 L 427.3686 191.83 L 428.0916 192.5874 L 425.6129 193.689 L 423.599 192.6563 L 423.599 194.2399 L 419.9843 194.4464 L 416.3695 193.4825 L 417.4023 195.0661 L 414.2007 196.2366 L 411.3089 194.5153 L 411.154 197.6136 L 408.5721 197.8202 L 407.6426 196.2366 L 405.9901 198.7841 L 403.3049 199.9546 L 401.6524 198.4398 L 398.9672 198.371 L 396.7467 197.6136 L 395.3525 197.9579 L 392.7189 193.0005 L 390.9632 192.1743 L 387.8648 192.5874 L 384.3017 195.548 L 383.2173 198.2333 L 383.6304 200.6431 L 381.3067 203.0529 L 379.396 201.7447 L 378.9313 205.2562 L 377.9502 207.4594 L 376.969 208.2857 L 378.2084 209.2496 L 378.7247 210.902 L 377.5887 212.0037 L 372.7863 213.1053 L 370.1527 215.7905 L 368.8101 218.7511 L 365.9183 220.2659 L 365.2986 221.8495 L 362.9232 222.538 L 359.0503 225.2921 L 358.0175 225.1544 L 357.2946 228.115 L 358.1208 229.6298 L 354.5061 229.6298 L 353.1118 227.4953 L 351.1495 227.4265 L 347.0184 224.0527 L 347.2766 221.7806 L 344.4881 222.2626 L 342.5775 224.5347 L 341.3381 225.1544 L 340.0472 227.1511 L 337.6718 229.7675 L 336.5874 232.4527 L 334.9866 233.3478 L 333.0759 233.4855 L 331.6817 232.5904 L 330.1325 233.0723 L 328.2735 232.2461 L 323.8325 232.9346 L 321.4572 232.7281 L 320.0113 233.6232 L 319.7531 237.0658 L 320.5793 238.2362 L 320.3727 240.7149 L 321.5604 245.2591 L 321.044 246.8427 L 322.3867 250.0099 L 322.0252 251.0427 L 320.3211 251.8689 L 318.2039 250.8361 L 316.4998 251.2493 L 314.7441 252.8329 L 313.9179 255.105 L 314.3826 258.2722 L 312.1105 261.0951 L 310.1999 262.6787 L 308.3925 262.059 L 299.9237 262.6098 L 301.5762 260.8197 L 299.8721 260.6131 L 298.5811 258.5476 L 300.3368 258.2033 L 298.2196 257.5836 L 296.1024 257.6525 L 295.4828 254.6919 L 293.727 251.6624 L 292.6943 251.0427 L 295.3278 248.2886 L 297.6 247.8067 L 296.7737 246.2919 L 295.0697 245.9477 L 293.7787 248.2886 L 291.4033 248.4263 L 291.5582 247.7378 L 289.5443 247.3247 L 288.8213 244.7772 L 287.2722 245.1214 L 287.0656 247.2558 L 285.0517 248.2198 L 281.5402 246.4296 L 284.432 245.1214 L 284.8968 242.9182 L 282.9345 242.5051 L 282.5214 241.61 L 283.6574 238.4428 L 283.8124 235.6887 L 285.723 230.9379 L 282.573 228.8035 L 281.9017 227.4265 L 277.6157 228.4593 L 276.0149 228.115 L 274.3108 229.0101 L 272.2452 226.0495 L 271.6772 224.6036 L 270.3346 224.1904 L 266.3068 224.1216 L 266.2551 226.1872 L 261.7109 228.6658 L 260.5232 228.3904 L 256.7019 229.4232 L 256.8052 224.7413 L 251.7446 223.2265 L 249.6274 223.3642 L 247.6135 221.7806 L 247.6135 219.5085 L 244.2569 219.8528 L 242.7078 216.6856 L 241.2619 216.1348 L 239.9709 216.6167 L 239.3512 215.0331 L 237.7504 213.3118 L 237.234 211.3151 L 235.375 210.902 L 234.5488 208.5611 L 232.7931 210.2135 L 230.2111 209.1119 L 225.2538 207.7348 L 225.512 205.4627 L 226.6997 204.9808 L 229.5398 201.8136 L 232.6382 201.5382 L 232.7414 198.3021 L 233.3095 196.7185 L 230.3144 191.8989 L 230.1595 190.5907 L 232.4832 187.4235 L 231.7603 185.7711 L 233.5677 182.7416 L 239.6611 180.4006 L 260.6781 164.0827 L 262.3822 162.4991 L 263.6732 160.2959 L 266.2035 159.4696 Z" fill="#7bea05" fill-opacity="1" stroke="#000000" stroke-width="0.3636363557547579" paint-order="fill" stroke-opacity="1" stroke-dasharray="" stroke-linecap="butt" stroke-linejoin="miter" stroke-miterlimit="10" transform="matrix(1.100000023841858,0,0,1.100000023841858,-40.0000114440918,-26.650001525878906)" clip-path="none"/>
<path d="M 464.6519 449.5428 L 465.0651 446.9953 L 463.0511 442.6576 L 462.8962 441.4183 L 460.7274 440.6609 L 458.7651 438.9396 L 462.4315 435.5659 L 465.5298 434.1888 L 466.356 433.0872 L 466.7691 430.6774 L 466.2528 426.8905 L 463.929 423.7233 L 463.4643 422.1398 L 464.8585 421.107 L 465.4782 418.9726 L 469.3511 417.3201 L 470.9519 415.7365 L 469.8158 413.7398 L 467.647 412.8447 L 463.8257 410.0907 L 462.6897 410.5726 L 462.3798 396.2514 L 462.7413 394.9432 L 465.4265 394.3924 L 464.7552 391.5006 L 466.5626 389.9171 L 471.0035 391.9826 L 472.2429 393.7728 L 474.4633 394.1859 L 475.083 391.8449 L 476.5289 392.1892 L 476.1158 390.7433 L 480.1953 393.8416 L 482.4157 395.976 L 483.81 396.8022 L 484.7911 396.1137 L 483.5518 399.0744 L 484.6362 400.9334 L 483.1903 401.6907 L 484.5846 404.7202 L 485.9272 405.4776 L 487.1665 404.8579 L 488.1477 405.6153 L 490.2649 404.1005 L 491.2976 404.8579 L 491.0911 406.9235 L 488.4059 406.0284 L 487.8895 406.9235 L 488.819 409.5399 L 488.6124 411.9497 L 489.6452 412.7759 L 492.4853 412.8447 L 494.1894 415.1169 L 497.9074 414.3595 L 499.405 414.9792 L 501.4189 413.4644 L 505.55 414.9103 L 506.2213 414.566 L 506.2213 412.3628 L 503.691 410.9857 L 502.3484 408.989 L 500.0763 407.13 L 502.5033 407.4054 L 501.0574 405.9596 L 502.0902 405.4776 L 504.6721 407.8186 L 503.6394 408.094 L 504.4656 409.6087 L 506.6344 409.8153 L 508.1836 411.0546 L 511.7467 416.0808 L 515.1032 419.3168 L 523.9335 420.3496 L 532.0408 419.1791 L 539.6833 416.0808 L 541.9038 415.8742 L 545.4153 411.7431 L 548.7202 409.6087 L 553.5742 407.2677 L 557.2406 406.0284 L 561.5783 405.6153 L 563.6954 404.5137 L 566.3807 403.894 L 568.7044 402.7235 L 572.3708 398.8678 L 573.1454 397.2842 L 574.488 397.2154 L 574.488 399.0744 L 575.8306 399.2809 L 576.2954 397.4219 L 577.0699 397.9727 L 577.1732 395.5629 L 579.1355 396.0449 L 580.633 394.4613 L 582.3371 393.6351 L 583.8346 391.9826 L 584.0928 389.2974 L 586.0035 387.5761 L 589.6698 386.8876 L 590.1862 389.022 L 592.3034 388.9531 L 592.5616 387.9203 L 597.0542 388.6777 L 602.4247 389.9171 L 603.8189 389.2285 L 610.7902 388.4023 L 610.6352 389.4351 L 607.6402 390.0548 L 607.5886 392.8777 L 610.6352 392.8088 L 613.4238 394.0482 L 617.7098 393.4285 L 619.9819 392.74 L 620.395 393.1531 L 624.681 394.0482 L 626.2819 393.1531 L 628.0892 393.9793 L 630.9294 394.3924 L 633.2015 395.7695 L 634.699 396.1137 L 639.6563 398.5235 L 642.1866 398.9367 L 643.2194 399.8317 L 646.6276 400.7957 L 648.7964 402.517 L 651.8431 406.4415 L 653.1341 407.2677 L 652.2562 404.7891 L 654.7865 407.0612 L 654.9931 407.9563 L 657.4201 410.6415 L 657.1103 411.33 L 658.8144 413.7398 L 661.7578 416.1496 L 661.9127 415.1169 L 665.5274 418.3529 L 665.2176 420.0053 L 667.7996 421.6578 L 671.7241 421.7266 L 669.452 423.2414 L 669.7102 424.5496 L 667.7996 427.1659 L 667.5414 429.1627 L 670.0717 429.7823 L 671.311 432.1921 L 671.6725 434.8085 L 672.4987 436.8052 L 673.9446 437.2183 L 677.6626 443.3462 L 678.9019 447.8904 L 680.1413 449.6117 L 676.32 450.369 L 674.4093 451.8149 L 672.2922 455.9461 L 673.893 458.5624 L 672.8085 459.5952 L 667.5414 463.0378 L 664.9594 465.5853 L 663.6684 465.3099 L 663.1521 463.3821 L 661.3963 460.628 L 658.7111 458.4247 L 657.6267 460.3526 L 658.1947 463.1755 L 659.0726 464.8968 L 658.866 466.6181 L 657.6267 467.8574 L 655.871 467.7886 L 653.2374 477.1524 L 651.2235 475.9131 L 648.6415 473.159 L 648.7964 471.5066 L 647.2473 469.923 L 646.6276 470.2673 L 642.7547 466.687 L 642.4448 464.2771 L 639.9662 461.4542 L 637.9006 459.9395 L 638.417 458.6313 L 636.3514 454.1559 L 633.8211 451.4018 L 632.272 446.4445 L 633.2015 444.2412 L 633.6662 445.4806 L 636.3514 445.756 L 637.7973 444.9986 L 639.5531 442.1757 L 639.2949 440.9363 L 636.9195 438.3888 L 638.7268 438.1134 L 638.7268 436.8052 L 640.0694 437.6314 L 641.5153 436.5298 L 641.4637 435.1528 L 642.4448 432.8807 L 643.4776 432.6052 L 643.7875 434.3265 L 646.4727 435.497 L 648.3833 438.7331 L 649.8808 438.1134 L 652.7726 438.7331 L 654.6833 440.4544 L 652.4112 438.1134 L 648.2284 437.2183 L 647.0923 435.979 L 645.8014 432.4675 L 646.3694 431.8479 L 644.562 429.7135 L 644.9235 428.2676 L 643.2711 426.7528 L 644.2006 428.4741 L 644.5104 432.1921 L 642.9096 430.0577 L 641.5153 431.0905 L 641.2055 432.3987 L 639.2432 433.3626 L 639.0367 432.0544 L 640.6375 431.779 L 640.0694 428.8872 L 639.3465 431.5036 L 638.7268 429.3692 L 637.1777 431.0905 L 636.4547 429.4381 L 634.4408 431.9167 L 632.7884 427.1659 L 632.6851 428.1299 L 633.8211 431.8479 L 634.699 433.0872 L 633.7179 435.2905 L 631.3941 433.2249 L 631.0843 430.884 L 630.5679 431.9856 L 629.7417 430.1266 L 629.69 428.1299 L 628.1409 426.202 L 629.9482 426.1332 L 629.122 423.9299 L 625.3523 422.8283 L 624.4228 421.3135 L 622.3057 419.7988 L 620.5499 419.3168 L 619.7237 417.7332 L 618.1745 416.5627 L 616.7803 417.389 L 615.6442 416.3562 L 614.9729 414.4283 L 610.0156 411.9497 L 607.0722 410.848 L 607.0722 408.0251 L 605.5746 407.5431 L 606.8656 409.0579 L 605.7812 410.6415 L 599.8943 409.8153 L 595.6083 409.953 L 592.0452 410.848 L 590.1862 413.1202 L 591.0125 414.7037 L 588.9469 412.3628 L 589.2567 414.0841 L 587.6559 414.9792 L 583.8346 415.8742 L 581.924 418.766 L 582.5953 421.7955 L 582.0273 423.1037 L 579.3937 424.825 L 581.2011 425.5824 L 584.2477 423.9988 L 584.1445 424.6184 L 581.4076 427.0282 L 578.0511 428.1299 L 577.6896 429.3692 L 575.5208 430.6085 L 574.1265 432.3987 L 570.047 435.2216 L 564.6766 437.9757 L 561.8364 438.0446 L 560.5971 438.5265 L 558.6348 437.7003 L 555.5365 441.2117 L 555.4332 445.5494 L 556.1562 448.3035 L 560.2356 449.9559 L 562.0946 454.0182 L 568.0848 458.9067 L 571.5962 463.2444 L 573.4036 466.4115 L 573.8167 468.3394 L 572.9905 470.1296 L 568.5495 471.4377 L 563.902 471.5066 L 560.2356 473.159 L 560.6487 475.5689 L 559.4611 475.7754 L 557.034 478.3918 L 555.898 478.1852 L 546.9644 479.7 L 541.9038 479.7 L 538.8055 478.2541 L 540.0448 475.5 L 539.9932 473.641 L 539.0637 473.0902 L 539.2702 470.7492 L 537.2563 468.6148 L 538.0309 466.8935 L 537.0498 465.1034 L 534.6227 462.2116 L 535.7071 461.9362 L 534.2612 460.7657 L 534.9326 459.6641 L 533.0219 458.9755 L 532.6604 457.8739 L 534.0547 456.7723 L 533.7965 453.3297 L 532.5572 456.0149 L 530.8531 456.0149 L 528.6326 455.3264 L 529.717 458.0805 L 527.7547 460.5591 L 528.5293 461.0411 L 528.6326 463.7952 L 527.8064 464.9657 L 525.4826 463.5886 L 521.0417 462.6247 L 520.0089 462.6935 L 519.0278 461.3854 L 516.1876 461.1788 L 517.5819 459.8018 L 516.0843 459.3887 L 515.6196 460.146 L 514.3286 459.3887 L 513.8122 457.7362 L 514.5352 455.7395 L 513.2958 455.7395 L 512.4696 454.4313 L 512.9344 450.7822 L 511.7467 452.0215 L 509.836 448.2346 L 510.3524 447.6838 L 507.4606 443.0707 L 507.7188 444.3789 L 506.6861 445.6871 L 502.5033 443.8281 L 500.0246 443.1396 L 500.7476 441.556 L 498.9918 443.0707 L 497.7009 442.1068 L 495.9452 442.4511 L 493.828 441.6249 L 492.8985 444.4478 L 492.7952 442.4511 L 490.8329 442.8642 L 489.6968 437.6314 L 489.0772 439.1462 L 487.7862 438.8019 L 487.6313 437.4937 L 485.0493 437.838 L 485.3075 438.8708 L 483.1903 439.697 L 481.951 439.0773 L 481.6412 437.4249 L 480.7117 438.6642 L 481.2281 439.9724 L 479.0076 440.179 L 473.4822 438.4577 L 470.5388 438.7331 L 467.9052 439.5593 L 465.8913 441.1429 L 465.3749 442.5199 L 465.5815 445.6871 L 466.4593 448.2346 L 465.4265 449.8871 L 464.6519 449.5428 Z M 654.6833 440.4544 L 655.3546 441.1429 L 655.4062 441.1429 L 655.4062 441.1429 L 655.4062 441.1429 L 655.4062 441.1429 L 655.7677 441.4183 L 656.9554 443.2084 L 658.1431 443.1396 L 655.9742 441.0052 L 655.4062 441.1429 L 655.4062 441.1429 L 655.4062 441.1429 L 655.4062 441.1429 L 654.6833 440.4544 Z M 534.3129 466.9624 L 532.9186 467.7886 L 531.1629 467.3755 L 528.8908 469.3722 L 526.567 469.5099 L 527.6515 468.3394 L 529.4588 467.9263 L 530.3883 466.7558 L 532.7121 465.9984 L 534.7776 466.205 L 534.3129 466.9624 Z M 508.2352 463.864 L 509.5262 467.3066 L 510.8688 468.9591 L 509.4229 469.6476 L 509.0614 471.2312 L 510.6623 473.5033 L 512.7278 473.4344 L 514.0188 475.5689 L 511.7467 476.1197 L 510.4041 475.3623 L 508.0803 475.1557 L 504.4656 472.1263 L 502.9164 468.8214 L 503.8459 468.8214 L 504.827 466.5493 L 508.2352 463.864 Z M 489.955 442.4511 L 488.7157 442.8642 L 488.9739 444.0347 L 486.3919 442.4511 L 487.9411 441.6937 L 489.955 442.4511 Z M 486.2887 440.4544 L 486.3919 441.4871 L 483.2936 442.3134 L 482.0543 440.7298 L 483.1387 440.8675 L 485.0493 439.4216 L 486.2887 440.4544 Z M 608.2599 438.7331 L 606.8656 439.0085 L 606.1943 440.7298 L 605.4714 439.4216 L 606.0394 437.1495 L 606.9172 436.5298 L 608.2599 438.7331 Z M 615.7475 431.1594 L 616.8319 433.2938 L 616.9352 435.4282 L 616.0573 437.2183 L 613.7336 437.7691 L 614.4049 440.179 L 613.4754 439.6281 L 613.0106 437.7691 L 611.8746 436.9429 L 612.391 435.3593 L 611.668 431.0905 L 614.7147 430.402 L 615.7475 431.1594 Z M 490.8329 399.2809 L 491.7624 399.1432 L 494.4476 400.9334 L 491.9173 402.6547 L 491.6591 400.176 L 490.8329 399.2809 Z M 488.6124 399.694 L 485.3075 396.8711 L 487.6313 395.7695 L 488.9739 398.317 L 488.6124 399.694 Z" fill="#f5fc98" fill-opacity="1" stroke="#000000" stroke-width="0.3636363557547579" paint-order="fill" stroke-opacity="1" stroke-dasharray="" stroke-linecap="butt" stroke-linejoin="miter" stroke-miterlimit="10" transform="matrix(1.100000023841858,0,0,1.100000023841858,-40.0000114440918,-26.650001525878906)" clip-path="none"/>
<path d="M 380.3256 371.6024 L 382.0813 372.3598 L 379.8092 372.7041 L 378.3116 371.1205 L 381.5649 371.3959 L 380.3256 371.6024 Z M 435.6825 339.9305 L 437.4382 342.5469 L 438.0579 345.6453 L 436.5087 342.5469 L 437.1284 346.7469 L 438.3161 345.8518 L 440.1751 350.878 L 442.4988 356.2485 L 445.1841 360.655 L 452.4135 370.0188 L 456.8545 374.7696 L 459.0749 374.6319 L 459.4364 376.2155 L 461.9667 379.8647 L 466.356 384.6843 L 467.2855 384.34 L 467.7503 386.4745 L 468.6798 387.6449 L 471.1585 388.4712 L 473.7404 388.6089 L 476.1158 390.7433 L 476.5289 392.1892 L 475.083 391.8449 L 474.4633 394.1859 L 472.2429 393.7728 L 471.0035 391.9826 L 466.5626 389.9171 L 464.7552 391.5006 L 465.4265 394.3924 L 462.7413 394.9432 L 462.3798 396.2514 L 462.6897 410.5726 L 463.8257 410.0907 L 467.647 412.8447 L 469.8158 413.7398 L 470.9519 415.7365 L 469.3511 417.3201 L 465.4782 418.9726 L 464.8585 421.107 L 463.4643 422.1398 L 463.929 423.7233 L 466.2528 426.8905 L 466.7691 430.6774 L 466.356 433.0872 L 465.5298 434.1888 L 462.4315 435.5659 L 458.7651 438.9396 L 460.7274 440.6609 L 462.8962 441.4183 L 463.0511 442.6576 L 465.0651 446.9953 L 464.6519 449.5428 L 464.1356 449.1297 L 464.5487 446.8576 L 461.9667 442.4511 L 461.0372 441.556 L 456.3897 438.1134 L 455.0987 436.8741 L 456.9577 434.5331 L 457.0094 433.2938 L 455.5119 430.8151 L 456.8028 430.0577 L 454.4791 429.5069 L 456.0282 428.543 L 454.2209 426.7528 L 451.6389 427.2348 L 450.916 426.202 L 448.6955 425.5135 L 448.1791 423.5168 L 446.2685 422.8971 L 444.8226 423.8611 L 442.6021 423.9299 L 445.5455 428.6807 L 449.9348 430.402 L 449.6767 432.1921 L 450.2447 433.0184 L 449.9865 436.6675 L 447.766 436.2544 L 443.4283 434.1888 L 439.1939 434.1888 L 437.7481 432.4675 L 434.4948 429.4381 L 433.1006 428.6118 L 432.9973 427.3725 L 434.3915 425.3758 L 435.6825 425.1692 L 437.0768 423.2414 L 437.1284 421.9332 L 439.0907 420.8316 L 436.7669 420.7627 L 438.6259 419.3168 L 437.5415 417.2513 L 439.039 417.7332 L 436.9735 415.6677 L 437.9546 414.3595 L 436.9735 411.7431 L 435.8891 411.0546 L 433.3071 407.612 L 431.8096 407.4054 L 431.035 405.6153 L 429.0727 404.7891 L 426.1293 401.9661 L 422.8244 400.3137 L 416.4212 398.1793 L 416.7826 397.4908 L 415.2851 395.6318 L 410.9474 394.7367 L 405.9901 393.3596 L 403.6147 393.6351 L 400.0516 391.4318 L 399.6385 390.3302 L 397.7279 388.6777 L 397.7279 387.0941 L 399.3287 384.6843 L 399.3287 383.6515 L 396.9533 380.4155 L 395.9205 379.8647 L 396.4885 378.3499 L 395.6107 376.6975 L 394.5263 376.3532 L 391.273 376.7663 L 393.5968 375.9401 L 391.3246 375.7336 L 389.5173 374.9073 L 385.1796 371.1205 L 382.3395 368.9861 L 379.1379 369.2615 L 376.969 367.6779 L 376.2461 366.4385 L 377.2789 372.1533 L 378.4149 372.5664 L 378.7764 374.2188 L 380.3256 375.527 L 385.1796 377.5926 L 387.2452 377.5237 L 389.0525 379.1073 L 388.3296 379.8647 L 389.2591 380.9663 L 388.2263 381.7237 L 390.8083 382.2056 L 389.0525 383.2384 L 387.2968 385.8548 L 385.4894 385.2351 L 385.8509 386.8876 L 383.4755 388.1958 L 382.4944 391.1564 L 381.41 392.3957 L 380.3772 390.2613 L 375.5231 383.8581 L 373.4059 382.1368 L 369.3781 380.7597 L 368.2937 381.3106 L 362.0454 379.245 L 361.0642 379.4516 L 360.5995 377.3171 L 356.7782 372.6352 L 354.3512 366.9205 L 353.8348 364.7172 L 354.5577 363.8222 L 353.1635 362.2386 L 354.8159 360.0353 L 355.4872 360.2419 L 356.8815 358.7271 L 355.5905 356.937 L 356.6233 355.0091 L 357.3979 355.4222 L 359.5667 354.3206 L 362.1486 352.0485 L 361.3741 351.1534 L 359.8765 352.737 L 361.0126 349.8452 L 360.9093 346.0584 L 357.8626 344.6813 L 357.088 345.0944 L 355.7971 343.924 L 351.8725 342.065 L 350.4782 341.8584 L 352.8536 340.6191 L 353.0085 339.724 L 354.8159 339.6551 L 356.0552 341.3076 L 356.52 340.0683 L 359.2052 340.4125 L 359.7733 338.8289 L 357.8626 336.9011 L 358.8437 336.0748 L 360.7544 336.2125 L 359.5151 334.6289 L 362.097 330.2224 L 363.3363 329.7405 L 366.6412 331.8749 L 388.0198 339.724 L 389.7238 339.5174 L 396.282 335.1109 L 397.418 334.7667 L 399.4836 336.0748 L 400.9295 336.1437 L 404.3893 337.5896 L 405.2155 338.6224 L 407.0229 339.1043 L 409.3466 337.5896 L 410.9991 340.4125 L 412.7548 341.0322 L 414.8204 342.6158 L 414.1491 344.1994 L 415.4917 345.6453 L 417.5056 345.301 L 419.7777 346.2649 L 421.74 345.3699 L 425.0965 347.9174 L 427.8334 347.7797 L 428.7112 346.7469 L 433.7719 345.1633 L 435.0628 344.4748 L 434.7014 340.0683 L 435.6825 339.9305 Z" fill="#ff0066" fill-opacity="1" stroke="#000000" stroke-width="0.3636363557547579" paint-order="fill" stroke-opacity="1" stroke-dasharray="" stroke-linecap="butt" stroke-linejoin="miter" stroke-miterlimit="10" transform="matrix(1.100000023841858,0,0,1.100000023841858,-40.0000114440918,-26.650001525878906)" clip-path="none"/>
<path d="M 282.573 98.0537 L 281.7984 98.9488 L 281.7984 94.8865 L 282.7796 97.3652 L 282.573 98.0537 Z M 283.0894 89.8603 L 283.3476 90.6177 L 282.4181 92.6833 L 281.0755 94.2669 L 280.3526 93.716 L 279.1132 95.1619 L 278.1321 99.4996 L 277.6157 98.9488 L 278.7517 93.8537 L 280.6107 92.2013 L 281.9534 92.4767 L 282.573 91.3751 L 281.7468 89.3095 L 283.0894 89.8603 Z M 270.6961 84.4899 L 269.56 84.5587 L 273.0198 82.1489 L 272.6583 83.3194 L 270.6961 84.4899 Z M 281.1271 66.1064 L 278.9583 71.1326 L 277.9772 74.2309 L 276.8411 75.3326 L 278.0288 69.4113 L 279.0616 66.2441 L 281.1271 66.1064 Z M 233.9291 78.7752 L 233.9291 75.4703 L 235.0136 72.8539 L 238.0086 71.8211 L 240.4873 73.6801 L 241.675 73.749 L 242.1397 74.8506 L 243.9987 76.0211 L 244.8766 74.5063 L 247.0971 72.785 L 247.7684 70.926 L 249.2659 69.8933 L 250.8151 66.1753 L 250.7118 65.0736 L 253.6036 62.9392 L 253.9134 61.0802 L 255.8241 58.5327 L 256.6503 55.0901 L 258.2511 53.5065 L 259.2839 53.9196 L 260.9363 53.3 L 261.7625 53.9196 L 264.6543 53.7131 L 265.4805 54.4016 L 264.7576 55.3655 L 261.9691 57.3622 L 262.6404 58.4638 L 264.3445 57.7753 L 262.7953 60.254 L 266.41 58.2573 L 268.7338 59.0835 L 272.4518 57.913 L 270.6444 59.7032 L 272.4002 59.5655 L 272.6583 64.0409 L 272.3485 67.5523 L 270.2313 73.1293 L 269.6633 73.5424 L 268.1141 76.5031 L 267.9076 80.6342 L 266.9781 83.8014 L 265.7387 85.5227 L 265.3773 87.9325 L 267.701 89.9292 L 269.5084 90.5488 L 269.0953 91.2374 L 267.2363 91.0997 L 266.7199 92.0636 L 265.1707 97.0898 L 264.6543 103.2176 L 265.3773 106.4536 L 266.5133 106.9356 L 267.3912 109.07 L 267.5977 111.6864 L 266.6682 111.8929 L 265.1707 114.0962 L 266.3068 117.1257 L 264.4994 118.6404 L 264.2928 123.1158 L 263.2601 123.8043 L 261.1429 126.9715 L 261.8658 127.7289 L 261.3494 129.3125 L 259.1289 132.8928 L 258.0962 133.3747 L 256.2372 136.1288 L 255.8757 137.437 L 253.8618 137.8501 L 251.7446 136.955 L 251.3831 138.1255 L 248.4913 139.0895 L 248.2848 141.9124 L 246.5807 143.0829 L 246.0127 144.2534 L 244.4118 145.4927 L 244.2053 146.6632 L 241.6233 148.3156 L 242.0881 151.7582 L 240.6938 152.309 L 237.4922 151.414 L 232.5349 151.414 L 230.6759 152.1713 L 230.521 149.3484 L 231.5021 140.5354 L 232.5349 128.8305 L 234.0324 108.3126 L 234.0841 97.5029 L 233.9291 78.7752 Z" fill="#ff0066" fill-opacity="1" stroke="#000000" stroke-width="0.3636363557547579" paint-order="fill" stroke-opacity="1" stroke-dasharray="" stroke-linecap="butt" stroke-linejoin="miter" stroke-miterlimit="10" transform="matrix(1.100000023841858,0,0,1.100000023841858,-40.0000114440918,-26.650001525878906)" clip-path="none"/>
<path d="M 467.3888 208.4922 L 464.8069 208.6988 L 466.0978 206.7709 L 467.1823 206.4955 L 467.3888 208.4922 Z M 359.5151 334.6289 L 356.3651 333.4585 L 355.0741 330.3601 L 351.0979 325.9536 L 348.6192 324.7143 L 346.8119 322.6487 L 342.4226 319.4127 L 341.9062 317.9668 L 339.3759 316.1078 L 335.9677 314.593 L 334.4702 312.3898 L 330.0809 309.016 L 328.3768 305.8488 L 326.621 304.2652 L 325.1235 301.1669 L 322.903 298.9636 L 321.5088 296.5538 L 320.2178 292.9047 L 318.9268 291.5965 L 311.3876 286.9146 L 307.7212 283.8851 L 305.1909 282.7146 L 307.8761 283.4031 L 304.9843 281.4064 L 303.4352 279.6851 L 298.7877 276.3114 L 294.7598 271.6294 L 294.45 269.977 L 292.023 269.3573 L 287.7369 266.7409 L 286.291 264.9508 L 286.9623 262.541 L 290.0607 259.718 L 291.3516 259.9246 L 294.2951 262.541 L 295.4828 264.8819 L 297.0836 265.1573 L 300.8532 264.9508 L 297.9614 264.6065 L 297.9098 263.6426 L 299.9237 262.6098 L 308.3925 262.059 L 310.1999 262.6787 L 312.1105 261.0951 L 314.3826 258.2722 L 313.9179 255.105 L 314.7441 252.8329 L 316.4998 251.2493 L 318.2039 250.8361 L 320.3211 251.8689 L 322.0252 251.0427 L 322.3867 250.0099 L 321.044 246.8427 L 321.5604 245.2591 L 320.3727 240.7149 L 320.5793 238.2362 L 319.7531 237.0658 L 320.0113 233.6232 L 321.4572 232.7281 L 323.8325 232.9346 L 328.2735 232.2461 L 330.1325 233.0723 L 331.6817 232.5904 L 333.0759 233.4855 L 334.9866 233.3478 L 336.5874 232.4527 L 337.6718 229.7675 L 340.0472 227.1511 L 341.3381 225.1544 L 342.5775 224.5347 L 344.4881 222.2626 L 347.2766 221.7806 L 347.0184 224.0527 L 351.1495 227.4265 L 353.1118 227.4953 L 354.5061 229.6298 L 358.1208 229.6298 L 357.2946 228.115 L 358.0175 225.1544 L 359.0503 225.2921 L 362.9232 222.538 L 365.2986 221.8495 L 365.9183 220.2659 L 368.8101 218.7511 L 370.1527 215.7905 L 372.7863 213.1053 L 377.5887 212.0037 L 378.7247 210.902 L 378.2084 209.2496 L 376.969 208.2857 L 377.9502 207.4594 L 378.9313 205.2562 L 379.396 201.7447 L 381.3067 203.0529 L 383.6304 200.6431 L 383.2173 198.2333 L 384.3017 195.548 L 387.8648 192.5874 L 390.9632 192.1743 L 392.7189 193.0005 L 395.3525 197.9579 L 396.7467 197.6136 L 398.9672 198.371 L 401.6524 198.4398 L 403.3049 199.9546 L 405.9901 198.7841 L 407.6426 196.2366 L 408.5721 197.8202 L 411.154 197.6136 L 411.3089 194.5153 L 414.2007 196.2366 L 417.4023 195.0661 L 416.3695 193.4825 L 419.9843 194.4464 L 423.599 194.2399 L 423.599 192.6563 L 425.6129 193.689 L 428.0916 192.5874 L 427.3686 191.83 L 429.3825 191.6923 L 430.0539 190.7973 L 431.5514 191.2792 L 432.0161 189.4202 L 434.8046 189.9022 L 435.2178 188.5251 L 438.0063 186.9416 L 438.6259 184.5317 L 440.4849 185.6334 L 442.0341 185.0826 L 442.9636 183.7744 L 444.2546 184.5317 L 447.2496 184.7383 L 447.5078 185.5645 L 452.4652 184.876 L 451.1742 185.9776 L 450.6578 185.358 L 448.6955 187.8366 L 446.8365 191.4858 L 446.0103 188.2497 L 443.7898 189.3514 L 442.189 191.4858 L 443.2218 193.8267 L 445.0291 195.1349 L 446.4234 193.5513 L 448.7472 202.9152 L 450.6062 208.0791 L 450.6578 210.902 L 449.6767 213.3118 L 445.0291 221.0921 L 443.2734 222.3314 L 442.0857 224.6036 L 439.9169 232.9346 L 439.0907 237.2723 L 439.039 240.7838 L 437.6964 245.2591 L 437.3349 250.1476 L 439.8136 264.7442 L 438.7292 274.7966 L 438.7808 276.931 L 440.8464 281.131 L 440.6398 283.8162 L 436.044 284.7801 L 436.5604 283.3343 L 435.3727 281.131 L 435.2178 277.6195 L 437.0251 277.8261 L 437.903 276.5868 L 438.5226 268.7376 L 435.8891 268.0491 L 434.8046 269.2196 L 436.044 271.1475 L 436.9735 275.0032 L 433.8751 277.413 L 430.467 278.3769 L 430.2088 280.8556 L 431.7063 280.9933 L 432.2743 283.0589 L 431.7579 285.331 L 432.7391 286.3637 L 433.8751 286.0883 L 434.0817 288.085 L 435.2178 285.4687 L 436.0956 285.8818 L 434.3915 289.3932 L 433.6169 293.9375 L 433.9784 298.7571 L 432.2743 296.2784 L 433.1006 295.5211 L 432.5325 293.8686 L 431.7063 297.1735 L 430.6735 297.5178 L 430.9834 301.1669 L 428.1949 304.0587 L 430.1571 306.262 L 431.7063 306.5374 L 431.9645 304.6784 L 433.2555 304.8161 L 435.0628 311.7701 L 435.1145 313.8357 L 431.1383 315.9701 L 429.9506 320.3077 L 428.9178 320.17 L 427.2654 322.993 L 427.2654 326.7798 L 428.453 331.7372 L 431.7063 337.7961 L 433.7719 339.5174 L 435.6825 339.9305 L 434.7014 340.0683 L 435.0628 344.4748 L 433.7719 345.1633 L 428.7112 346.7469 L 427.8334 347.7797 L 425.0965 347.9174 L 421.74 345.3699 L 419.7777 346.2649 L 417.5056 345.301 L 415.4917 345.6453 L 414.1491 344.1994 L 414.8204 342.6158 L 412.7548 341.0322 L 410.9991 340.4125 L 409.3466 337.5896 L 407.0229 339.1043 L 405.2155 338.6224 L 404.3893 337.5896 L 400.9295 336.1437 L 399.4836 336.0748 L 397.418 334.7667 L 396.282 335.1109 L 389.7238 339.5174 L 388.0198 339.724 L 366.6412 331.8749 L 363.3363 329.7405 L 362.097 330.2224 L 359.5151 334.6289 Z" fill="#8cd5f7" fill-opacity="1" stroke="#000000" stroke-width="0.3636363557547579" paint-order="fill" stroke-opacity="1" stroke-dasharray="" stroke-linecap="butt" stroke-linejoin="miter" stroke-miterlimit="10" transform="matrix(1.100000023841858,0,0,1.100000023841858,-40.0000114440918,-26.650001525878906)" clip-path="none"/>
<path d="M 242.0881 151.7582 L 243.7922 153.0664 L 246.684 153.1353 L 252.4675 157.1975 L 252.106 159.1254 L 253.5003 158.9877 L 255.256 155.5451 L 255.256 153.9615 L 257.4765 153.6861 L 252.7774 149.6238 L 253.2937 149.0041 L 255.3077 150.0369 L 258.974 153.273 L 262.692 155.0631 L 265.8936 157.7483 L 267.133 158.368 L 266.2035 159.4696 L 263.6732 160.2959 L 262.3822 162.4991 L 260.6781 164.0827 L 239.6611 180.4006 L 233.5677 182.7416 L 231.7603 185.7711 L 232.4832 187.4235 L 230.1595 190.5907 L 230.3144 191.8989 L 233.3095 196.7185 L 232.7414 198.3021 L 232.6382 201.5382 L 229.5398 201.8136 L 226.6997 204.9808 L 225.512 205.4627 L 225.2538 207.7348 L 223.9112 206.5644 L 222.7235 207.5971 L 220.7612 207.2529 L 218.6956 208.9742 L 217.6629 207.8037 L 216.8883 208.7676 L 217.4047 210.007 L 216.5785 210.9709 L 218.3342 212.4856 L 219.0055 214.8954 L 215.0293 215.7905 L 212.3957 217.7184 L 210.7949 220.4724 L 210.4334 222.2626 L 207.7482 221.0921 L 206.1474 221.7118 L 200.8802 225.6363 L 199.9507 227.2199 L 198.0401 228.597 L 197.4204 230.9379 L 198.195 233.5543 L 186.9377 228.4593 L 183.3746 227.0134 L 180.4312 226.256 L 175.7837 225.5675 L 168.3477 226.1872 L 163.442 225.9806 L 159.001 225.4298 L 153.4757 224.1904 L 144.9036 220.197 L 137.261 215.3085 L 132.0455 211.3151 L 126.9332 206.4266 L 119.8587 200.9873 L 121.253 200.0923 L 122.957 196.4431 L 123.112 195.1349 L 122.1308 190.8661 L 123.5251 187.5612 L 123.6284 183.9809 L 125.4874 183.1547 L 126.6234 181.0203 L 122.0275 174.6859 L 122.0275 172.7581 L 139.1717 144.3222 L 140.2045 143.496 L 185.182 144.3222 L 186.5246 143.9779 L 186.1631 142.6009 L 187.4024 140.8108 L 186.1115 139.8468 L 186.7828 135.3026 L 189.2098 133.0993 L 188.6934 131.1026 L 185.75 130.6207 L 183.323 128.2797 L 180.1214 128.4863 L 180.8443 127.1781 L 179.605 126.765 L 180.173 124.3551 L 178.9337 124.5617 L 178.9853 122.083 L 176.5583 118.4339 L 173.1501 116.1618 L 170.6714 115.3355 L 168.2444 113.4077 L 167.3665 113.4077 L 164.733 111.6864 L 162.8223 107.8307 L 161.0666 107.4176 L 159.1559 104.3881 L 157.9166 103.6996 L 156.8838 101.2209 L 154.1986 101.0832 L 153.8888 100.1881 L 151.4101 99.2242 L 151.8749 98.6045 L 167.6764 99.0176 L 168.1411 78.0866 L 169.2255 77.6047 L 233.9291 78.7752 L 234.0841 97.5029 L 234.0324 108.3126 L 232.5349 128.8305 L 231.5021 140.5354 L 230.521 149.3484 L 230.6759 152.1713 L 232.5349 151.414 L 237.4922 151.414 L 240.6938 152.309 L 242.0881 151.7582 Z" fill="#8cd5f7" fill-opacity="1" stroke="#000000" stroke-width="0.3636363557547579" paint-order="fill" stroke-opacity="1" stroke-dasharray="" stroke-linecap="butt" stroke-linejoin="miter" stroke-miterlimit="10" transform="matrix(1.100000023841858,0,0,1.100000023841858,-40.0000114440918,-26.650001525878906)" clip-path="none"/>
<path d="M 281.5402 246.4296 L 280.7657 245.1214 L 279.4231 248.0132 L 282.4697 250.2853 L 282.2116 251.8001 L 278.7517 253.7279 L 277.4091 255.7935 L 272.3485 255.4492 L 267.133 255.7246 L 258.8191 254.7607 L 259.5937 253.3837 L 257.838 251.8001 L 258.2511 253.1771 L 255.3593 252.5574 L 254.4814 251.2493 L 252.3126 250.9739 L 248.7495 251.2493 L 250.3503 252.0066 L 253.2937 251.6624 L 255.1011 253.3837 L 252.829 253.0394 L 257.3732 254.2099 L 257.1667 255.2427 L 255.4109 254.2099 L 245.961 252.3509 L 235.7365 247.5313 L 231.3988 244.7083 L 228.9202 243.6067 L 224.0661 242.7116 L 218.8506 242.7116 L 213.2736 241.0592 L 208.5228 241.3346 L 207.49 238.6494 L 203.3589 236.033 L 198.195 233.5543 L 197.4204 230.9379 L 198.0401 228.597 L 199.9507 227.2199 L 200.8802 225.6363 L 206.1474 221.7118 L 207.7482 221.0921 L 210.4334 222.2626 L 210.7949 220.4724 L 212.3957 217.7184 L 215.0293 215.7905 L 219.0055 214.8954 L 218.3342 212.4856 L 216.5785 210.9709 L 217.4047 210.007 L 216.8883 208.7676 L 217.6629 207.8037 L 218.6956 208.9742 L 220.7612 207.2529 L 222.7235 207.5971 L 223.9112 206.5644 L 225.2538 207.7348 L 230.2111 209.1119 L 232.7931 210.2135 L 234.5488 208.5611 L 235.375 210.902 L 237.234 211.3151 L 237.7504 213.3118 L 239.3512 215.0331 L 239.9709 216.6167 L 241.2619 216.1348 L 242.7078 216.6856 L 244.2569 219.8528 L 247.6135 219.5085 L 247.6135 221.7806 L 249.6274 223.3642 L 251.7446 223.2265 L 256.8052 224.7413 L 256.7019 229.4232 L 260.5232 228.3904 L 261.7109 228.6658 L 266.2551 226.1872 L 266.3068 224.1216 L 270.3346 224.1904 L 271.6772 224.6036 L 272.2452 226.0495 L 274.3108 229.0101 L 276.0149 228.115 L 277.6157 228.4593 L 281.9017 227.4265 L 282.573 228.8035 L 285.723 230.9379 L 283.8124 235.6887 L 283.6574 238.4428 L 282.5214 241.61 L 282.9345 242.5051 L 284.8968 242.9182 L 284.432 245.1214 L 281.5402 246.4296 Z" fill="#ff0066" fill-opacity="1" stroke="#000000" stroke-width="0.3636363557547579" paint-order="fill" stroke-opacity="1" stroke-dasharray="" stroke-linecap="butt" stroke-linejoin="miter" stroke-miterlimit="10" transform="matrix(1.100000023841858,0,0,1.100000023841858,-40.0000114440918,-26.650001525878906)" clip-path="none"/>
<path d="M -5 -5 L 75.4414 -5 L 75.4414 115 L -5 115 L -5 -5 Z" fill="rgba(255,255,255,0)" fill-opacity="0" stroke="#ccc" stroke-width="0" paint-order="fill" stroke-opacity="1" stroke-dasharray="" stroke-linecap="butt" stroke-linejoin="miter" stroke-miterlimit="10" transform="matrix(1,0,0,1,5,418)" clip-path="none"/>
<path d="M 3.5 0 L 16.5 0 A 3.5 3.5 0 0 1 20 3.5 L 20 10.5 A 3.5 3.5 0 0 1 16.5 14 L 3.5 14 A 3.5 3.5 0 0 1 0 10.5 L 0 3.5 A 3.5 3.5 0 0 1 3.5 0 Z" fill="#f5fc98" fill-opacity="1" stroke="none" transform="matrix(1,0,0,1,5,418)" clip-path="none"/>
<text transform="matrix(1,0,0,1,5,418)" fill="#333" fill-opacity="1" stroke="none" clip-path="none" style="font: 12px &quot;Microsoft YaHei&quot;;"><tspan dominant-baseline="middle" text-anchor="start" x="30" y="7">60 - 75</tspan></text>
<path d="M 3.5 0 L 16.5 0 A 3.5 3.5 0 0 1 20 3.5 L 20 10.5 A 3.5 3.5 0 0 1 16.5 14 L 3.5 14 A 3.5 3.5 0 0 1 0 10.5 L 0 3.5 A 3.5 3.5 0 0 1 3.5 0 Z" fill="#f6b9fd" fill-opacity="1" stroke="none" transform="matrix(1,0,0,1,5,442)" clip-path="none"/>
<text transform="matrix(1,0,0,1,5,442)" fill="#333" fill-opacity="1" stroke="none" clip-path="none" style="font: 12px &quot;Microsoft YaHei&quot;;"><tspan dominant-baseline="middle" text-anchor="start" x="30" y="7">45 - 60</tspan></text>
<path d="M 3.5 0 L 16.5 0 A 3.5 3.5 0 0 1 20 3.5 L 20 10.5 A 3.5 3.5 0 0 1 16.5 14 L 3.5 14 A 3.5 3.5 0 0 1 0 10.5 L 0 3.5 A 3.5 3.5 0 0 1 3.5 0 Z" fill="#7bea05" fill-opacity="1" stroke="none" transform="matrix(1,0,0,1,5,466)" clip-path="none"/>
<text transform="matrix(1,0,0,1,5,466)" fill="#333" fill-opacity="1" stroke="none" clip-path="none" style="font: 12px &quot;Microsoft YaHei&quot;;"><tspan dominant-baseline="middle" text-anchor="start" x="30" y="7">30 - 45</tspan></text>
<path d="M 3.5 0 L 16.5 0 A 3.5 3.5 0 0 1 20 3.5 L 20 10.5 A 3.5 3.5 0 0 1 16.5 14 L 3.5 14 A 3.5 3.5 0 0 1 0 10.5 L 0 3.5 A 3.5 3.5 0 0 1 3.5 0 Z" fill="#8cd5f7" fill-opacity="1" stroke="none" transform="matrix(1,0,0,1,5,490)" clip-path="none"/>
<text transform="matrix(1,0,0,1,5,490)" fill="#333" fill-opacity="1" stroke="none" clip-path="none" style="font: 12px &quot;Microsoft YaHei&quot;;"><tspan dominant-baseline="middle" text-anchor="start" x="30" y="7">15 - 30</tspan></text>
<path d="M 3.5 0 L 16.5 0 A 3.5 3.5 0 0 1 20 3.5 L 20 10.5 A 3.5 3.5 0 0 1 16.5 14 L 3.5 14 A 3.5 3.5 0 0 1 0 10.5 L 0 3.5 A 3.5 3.5 0 0 1 3.5 0 Z" fill="#ff0066" fill-opacity="1" stroke="none" transform="matrix(1,0,0,1,5,514)" clip-path="none"/>
<text transform="matrix(1,0,0,1,5,514)" fill="#333" fill-opacity="1" stroke="none" clip-path="none" style="font: 12px &quot;Microsoft YaHei&quot;;"><tspan dominant-baseline="middle" text-anchor="start" x="30" y="7">0 - 15</tspan></text>
<path d="M -5 -5 L 5 -5 L 5 5 L -5 5 L -5 -5 Z" fill="none" fill-opacity="1" stroke="#ccc" stroke-width="0" paint-order="fill" stroke-opacity="1" stroke-dasharray="" stroke-linecap="butt" stroke-linejoin="miter" stroke-miterlimit="10" transform="matrix(1,0,0,1,795,266.5)" clip-path="none"/>
<path fill="rgba(255,255,255,0)" fill-opacity="0" stroke="#ccc" stroke-width="0" paint-order="fill" stroke-opacity="1" stroke-dasharray="" stroke-linecap="butt" stroke-linejoin="miter" stroke-miterlimit="10" transform="matrix(1,0,0,1,15,10)" clip-path="none"/><defs><filter id="f1" x="-100%" y="-100%" width="1000%" height="1000%"><feOffset result="offOut" in="SourceGraphic" dx="-9.799999999999999" dy="9.799999999999999"></feOffset><feColorMatrix result="matrixOut" in="offOut" type="matrix" values="0.2 0 0 0 0 0 0.2 0 0 0 0 0 0.2 0 0 0 0 0 1 0"></feColorMatrix><feGaussianBlur result="blurOut" in="matrixOut" stdDeviation="8"></feGaussianBlur><feBlend in="SourceGraphic" in2="blurOut" mode="normal"></feBlend></filter></defs>
<text transform="matrix(1 0 0 1 274.2951 198.526)" style="font-family: Tahoma; font-size: 16px; display: block;" class="maplabels1">Honduras</text>
<text transform="matrix(1 0 0 1 513.2081 452.17)" style="font-family: Tahoma; font-size: 16px; display: block;" class="maplabels1">Panama</text>
<text transform="matrix(1 0 0 1 370.9725 374.9558)" style="font-family: Tahoma; font-size: 16px; display: block;" class="maplabels1">Costa Rica</text>
<text transform="matrix(3.035720e-02 -0.9995 0.9995 3.035720e-02 236.7488 114.4582)" style="font-family: Tahoma; font-size: 16px; display: block;" class="maplabels1">Belize</text>
<text transform="matrix(1 0 0 1 345.9058 281.7805)" style="font-family: Tahoma; font-size: 16px; display: block;" class="maplabels1">Nicaragua</text>
<text transform="matrix(1 0 0 1 133.1069 165.4874)" style="font-family: Tahoma; font-size: 16px; display: block;" class="maplabels1">Guatemala</text>
<text transform="matrix(1 0 0 1 190.9335 235.6467)" style="font-family: Tahoma; font-size: 15px; display: block;" class="maplabels1">El Salvador</text>
<text x="643" y="519.33333333333" font-size="11">Created with paintmaps.com</text>
</svg>